<svg xmlns="http://www.w3.org/2000/svg" xmlns:xlink="http://www.w3.org/1999/xlink" contentStyleType="text/css" data-diagram-type="ACTIVITY" height="3225px" preserveAspectRatio="none" style="width:1493px;height:3225px;background:#FFFFFF;" version="1.1" viewBox="0 0 1493 3225" width="1493.75px" zoomAndPan="magnify"><title>Hospital Portal Flow (Login &#8594; Pre-round &#8594; Bedside &#8594; Treatment/NMES &#8594; Close)</title><defs/><g><g class="title" data-source-line="13"><text fill="#000000" font-family="sans-serif" font-size="29.1667" font-weight="bold" lengthAdjust="spacing" textLength="1149.0332" x="169.5424" y="72.8457">Hospital Portal Flow (Login &#8594; Pre-round &#8594; Bedside &#8594; Treatment/NMES &#8594; Close)</text></g><ellipse cx="608.5892" cy="125.1415" fill="#222222" rx="20.8333" ry="20.8333" style="stroke:#222222;stroke-width:2.0833;"/><rect fill="#ADD8E6" height="75.7169" rx="26.0417" ry="26.0417" style="stroke:#0000FF;stroke-width:1.0417;" width="468.7447" x="374.2168" y="187.6415"/><text fill="#000000" font-family="sans-serif" font-size="25" lengthAdjust="spacing" textLength="427.0781" x="395.0502" y="235.2">Doctor opens the mobile application</text><rect fill="#ADD8E6" height="75.7169" rx="26.0417" ry="26.0417" style="stroke:#0000FF;stroke-width:1.0417;" width="422.3694" x="397.4045" y="305.0251"/><text fill="#000000" font-family="sans-serif" font-size="25" lengthAdjust="spacing" textLength="380.7027" x="418.2378" y="352.5836">System displays the login screen</text><rect fill="#ADD8E6" height="75.7169" rx="26.0417" ry="26.0417" style="stroke:#0000FF;stroke-width:1.0417;" width="338.7688" x="439.2048" y="422.4086"/><text fill="#000000" font-family="sans-serif" font-size="25" lengthAdjust="spacing" textLength="297.1022" x="460.0381" y="469.9672">Doctor enters credentials</text><rect fill="#ADD8E6" height="75.7169" rx="26.0417" ry="26.0417" style="stroke:#0000FF;stroke-width:1.0417;" width="451.5446" x="382.8169" y="659.0816"/><text fill="#000000" font-family="sans-serif" font-size="25" lengthAdjust="spacing" textLength="409.8779" x="403.6502" y="706.6401">System shows authentication error</text><rect fill="#ADD8E6" height="75.7169" rx="26.0417" ry="26.0417" style="stroke:#0000FF;stroke-width:1.0417;" width="371.2441" x="422.9672" y="793.1507"/><text fill="#000000" font-family="sans-serif" font-size="25" lengthAdjust="spacing" textLength="329.5774" x="443.8005" y="840.7092">Doctor re-enters credentials</text><polygon fill="#ADD8E6" points="451.7486,539.7922,765.4298,539.7922,790.4298,564.7922,765.4298,589.7922,451.7486,589.7922,426.7486,564.7922,451.7486,539.7922" style="stroke:#0000FF;stroke-width:1.0417;"/><text fill="#000000" font-family="sans-serif" font-size="22.9167" lengthAdjust="spacing" textLength="35.3143" x="616.9225" y="614.2899">NO</text><text fill="#000000" font-family="sans-serif" font-size="22.9167" lengthAdjust="spacing" textLength="313.6812" x="451.7486" y="573.6838">System validates credentials?</text><text fill="#000000" font-family="sans-serif" font-size="22.9167" lengthAdjust="spacing" textLength="38.2935" x="388.4552" y="558.0777">YES</text><path d="M830.8404,965.3656 L830.8404,985.8927 L789.1737,994.2261 L830.8404,1002.5594 L830.8404,1023.0865 A0,0 0 0 0 830.8404,1023.0865 L1469.3681,1023.0865 A0,0 0 0 0 1469.3681,1023.0865 L1469.3681,986.199 L1448.5347,965.3656 L830.8404,965.3656 A0,0 0 0 0 830.8404,965.3656" fill="#D3D3D3" style="stroke:#808080;stroke-width:1.0417;"/><path d="M1448.5347,965.3656 L1448.5347,986.199 L1469.3681,986.199 L1448.5347,965.3656" fill="#D3D3D3" style="stroke:#808080;stroke-width:1.0417;"/><text fill="#000000" font-family="sans-serif" font-size="27.0833" lengthAdjust="spacing" textLength="594.7777" x="843.3404" y="1004.7344">Audit Module: Event stored for audit purposes.</text><rect fill="#ADD8E6" height="75.7169" rx="26.0417" ry="26.0417" style="stroke:#0000FF;stroke-width:1.0417;" width="361.169" x="428.0047" y="956.3676"/><text fill="#000000" font-family="sans-serif" font-size="25" lengthAdjust="spacing" textLength="319.5024" x="448.838" y="1003.9261">System issues access token</text><rect fill="#ADD8E6" height="75.7169" rx="26.0417" ry="26.0417" style="stroke:#0000FF;stroke-width:1.0417;" width="540.5203" x="338.3291" y="1073.7512"/><text fill="#000000" font-family="sans-serif" font-size="25" lengthAdjust="spacing" textLength="498.8536" x="359.1624" y="1121.3097">Doctor selects current shift and patient list</text><rect fill="#ADD8E6" height="75.7169" rx="26.0417" ry="26.0417" style="stroke:#0000FF;stroke-width:1.0417;" width="609.4957" x="303.8414" y="1191.1348"/><text fill="#000000" font-family="sans-serif" font-size="25" lengthAdjust="spacing" textLength="567.829" x="324.6747" y="1238.6933">System preloads patient data and clinical history</text><rect fill="#ADD8E6" height="75.7169" rx="26.0417" ry="26.0417" style="stroke:#0000FF;stroke-width:1.0417;" width="585.5206" x="315.8289" y="1427.8077"/><text fill="#000000" font-family="sans-serif" font-size="25" lengthAdjust="spacing" textLength="543.8539" x="336.6623" y="1475.3663">Doctor reviews patient data and plans the visit</text><polygon fill="#ADD8E6" points="476.1891,1308.5183,740.9893,1308.5183,765.9893,1333.5183,740.9893,1358.5183,476.1891,1358.5183,451.1891,1333.5183,476.1891,1308.5183" style="stroke:#0000FF;stroke-width:1.0417;"/><text fill="#000000" font-family="sans-serif" font-size="22.9167" lengthAdjust="spacing" textLength="38.2935" x="616.9225" y="1383.0161">YES</text><text fill="#000000" font-family="sans-serif" font-size="22.9167" lengthAdjust="spacing" textLength="264.8003" x="476.1891" y="1342.4099">More patients in the list?</text><text fill="#000000" font-family="sans-serif" font-size="22.9167" lengthAdjust="spacing" textLength="35.3143" x="415.8747" y="1326.8038">NO</text><rect fill="#ADD8E6" height="75.7169" rx="26.0417" ry="26.0417" style="stroke:#0000FF;stroke-width:1.0417;" width="346.7189" x="435.2297" y="1591.0246"/><text fill="#000000" font-family="sans-serif" font-size="25" lengthAdjust="spacing" textLength="305.0522" x="456.0631" y="1638.5832">Doctor starts bedside visit</text><rect fill="#ADD8E6" height="75.7169" rx="26.0417" ry="26.0417" style="stroke:#0000FF;stroke-width:1.0417;" width="419.3695" x="398.9045" y="1811.5143"/><text fill="#000000" font-family="sans-serif" font-size="25" lengthAdjust="spacing" textLength="377.7028" x="419.7378" y="1859.0729">Doctor prescribes NMES session</text><polygon fill="#ADD8E6" points="517.5878,1928.8979,699.5906,1928.8979,724.5906,1953.8979,699.5906,1978.8979,517.5878,1978.8979,492.5878,1953.8979,517.5878,1928.8979" style="stroke:#0000FF;stroke-width:1.0417;"/><text fill="#000000" font-family="sans-serif" font-size="22.9167" lengthAdjust="spacing" textLength="182.0029" x="517.5878" y="1962.7895">Device available?</text><text fill="#000000" font-family="sans-serif" font-size="22.9167" lengthAdjust="spacing" textLength="38.2935" x="454.2943" y="1947.1834">YES</text><text fill="#000000" font-family="sans-serif" font-size="22.9167" lengthAdjust="spacing" textLength="35.3143" x="724.5906" y="1947.1834">NO</text><rect fill="#ADD8E6" height="75.7169" rx="26.0417" ry="26.0417" style="stroke:#0000FF;stroke-width:1.0417;" width="536.8953" x="77.667" y="1999.7312"/><text fill="#000000" font-family="sans-serif" font-size="25" lengthAdjust="spacing" textLength="495.2286" x="98.5004" y="2047.2898">Nurse applies NMES according to protocol</text><rect fill="#ADD8E6" height="75.7169" rx="26.0417" ry="26.0417" style="stroke:#0000FF;stroke-width:1.0417;" width="429.6695" x="656.229" y="1999.7312"/><text fill="#000000" font-family="sans-serif" font-size="25" lengthAdjust="spacing" textLength="388.0029" x="677.0623" y="2047.2898">Nurse reschedules NMES session</text><polygon fill="#ADD8E6" points="608.5892,2087.9482,633.5892,2112.9482,608.5892,2137.9482,583.5892,2112.9482,608.5892,2087.9482" style="stroke:#0000FF;stroke-width:1.0417;"/><polygon fill="#ADD8E6" points="519.2607,1708.4082,697.9177,1708.4082,722.9177,1733.4082,697.9177,1758.4082,519.2607,1758.4082,494.2607,1733.4082,519.2607,1708.4082" style="stroke:#0000FF;stroke-width:1.0417;"/><text fill="#000000" font-family="sans-serif" font-size="22.9167" lengthAdjust="spacing" textLength="38.2935" x="616.9225" y="1782.9059">YES</text><text fill="#000000" font-family="sans-serif" font-size="22.9167" lengthAdjust="spacing" textLength="178.6571" x="519.2607" y="1742.2998">NMES indicated?</text><polygon fill="#ADD8E6" points="608.5892,2179.6148,633.5892,2204.6148,608.5892,2229.6148,583.5892,2204.6148,608.5892,2179.6148" style="stroke:#0000FF;stroke-width:1.0417;"/><polygon fill="#ADD8E6" points="481.2651,2271.2815,735.9133,2271.2815,760.9133,2296.2815,735.9133,2321.2815,481.2651,2321.2815,456.2651,2296.2815,481.2651,2271.2815" style="stroke:#0000FF;stroke-width:1.0417;"/><text fill="#000000" font-family="sans-serif" font-size="22.9167" lengthAdjust="spacing" textLength="254.6482" x="481.2651" y="2305.1731">Active treatment order?</text><text fill="#000000" font-family="sans-serif" font-size="22.9167" lengthAdjust="spacing" textLength="38.2935" x="417.9716" y="2289.567">YES</text><text fill="#000000" font-family="sans-serif" font-size="22.9167" lengthAdjust="spacing" textLength="35.3143" x="760.9133" y="2289.567">NO</text><rect fill="#ADD8E6" height="75.7169" rx="26.0417" ry="26.0417" style="stroke:#0000FF;stroke-width:1.0417;" width="546.8953" x="22.9167" y="2342.1148"/><text fill="#000000" font-family="sans-serif" font-size="25" lengthAdjust="spacing" textLength="505.2287" x="43.75" y="2389.6733">Nurse administers treatment as prescribed</text><rect fill="#ADD8E6" height="75.7169" rx="26.0417" ry="26.0417" style="stroke:#0000FF;stroke-width:1.0417;" width="618.6708" x="611.4787" y="2342.1148"/><text fill="#000000" font-family="sans-serif" font-size="25" lengthAdjust="spacing" textLength="577.0041" x="632.312" y="2389.6733">Nurse requests clarification before administering</text><polygon fill="#ADD8E6" points="608.5892,2430.3317,633.5892,2455.3317,608.5892,2480.3317,583.5892,2455.3317,608.5892,2430.3317" style="stroke:#0000FF;stroke-width:1.0417;"/><rect fill="#ADD8E6" height="75.7169" rx="26.0417" ry="26.0417" style="stroke:#0000FF;stroke-width:1.0417;" width="670.7962" x="273.1911" y="2521.9984"/><text fill="#000000" font-family="sans-serif" font-size="25" lengthAdjust="spacing" textLength="629.1295" x="294.0244" y="2569.5569">Doctor validates the visit note and signs electronically</text><rect fill="#ADD8E6" height="75.7169" rx="26.0417" ry="26.0417" style="stroke:#0000FF;stroke-width:1.0417;" width="555.8953" x="330.6416" y="2639.382"/><text fill="#000000" font-family="sans-serif" font-size="25" lengthAdjust="spacing" textLength="514.2286" x="351.4749" y="2686.9405">System saves the note and updates the EHR</text><rect fill="#ADD8E6" height="75.7169" rx="26.0417" ry="26.0417" style="stroke:#0000FF;stroke-width:1.0417;" width="639.296" x="288.9412" y="2876.0549"/><text fill="#000000" font-family="sans-serif" font-size="25" lengthAdjust="spacing" textLength="597.6294" x="309.7745" y="2923.6135">Doctor performs bedside steps for the next patient</text><polygon fill="#ADD8E6" points="482.8922,2756.7655,734.2862,2756.7655,759.2862,2781.7655,734.2862,2806.7655,482.8922,2806.7655,457.8922,2781.7655,482.8922,2756.7655" style="stroke:#0000FF;stroke-width:1.0417;"/><text fill="#000000" font-family="sans-serif" font-size="22.9167" lengthAdjust="spacing" textLength="38.2935" x="616.9225" y="2831.2633">YES</text><text fill="#000000" font-family="sans-serif" font-size="22.9167" lengthAdjust="spacing" textLength="251.3941" x="482.8922" y="2790.6571">More bedside patients?</text><text fill="#000000" font-family="sans-serif" font-size="22.9167" lengthAdjust="spacing" textLength="35.3143" x="422.5778" y="2775.051">NO</text><rect fill="#ADD8E6" height="75.7169" rx="26.0417" ry="26.0417" style="stroke:#0000FF;stroke-width:1.0417;" width="363.044" x="427.0672" y="3039.2718"/><text fill="#000000" font-family="sans-serif" font-size="25" lengthAdjust="spacing" textLength="321.3773" x="447.9005" y="3086.8304">Doctor finalizes daily round</text><ellipse cx="608.5892" cy="3179.5721" fill="none" rx="22.9167" ry="22.9167" style="stroke:#222222;stroke-width:2.0833;"/><ellipse cx="608.5892" cy="3179.5721" fill="#222222" rx="12.5" ry="12.5" style="stroke:#222222;stroke-width:2.0833;"/><line style="stroke:#181818;stroke-width:2.0833;" x1="608.5892" x2="608.5892" y1="145.9748" y2="187.6415"/><polygon fill="#181818" points="600.2559,166.8082,608.5892,187.6415,616.9225,166.8082,608.5892,175.1415" style="stroke:#181818;stroke-width:2.0833;"/><line style="stroke:#181818;stroke-width:2.0833;" x1="608.5892" x2="608.5892" y1="263.3584" y2="305.0251"/><polygon fill="#181818" points="600.2559,284.1917,608.5892,305.0251,616.9225,284.1917,608.5892,292.5251" style="stroke:#181818;stroke-width:2.0833;"/><line style="stroke:#181818;stroke-width:2.0833;" x1="608.5892" x2="608.5892" y1="380.742" y2="422.4086"/><polygon fill="#181818" points="600.2559,401.5753,608.5892,422.4086,616.9225,401.5753,608.5892,409.9086" style="stroke:#181818;stroke-width:2.0833;"/><line style="stroke:#181818;stroke-width:2.0833;" x1="608.5892" x2="608.5892" y1="734.7985" y2="793.1507"/><polygon fill="#181818" points="600.2559,772.3174,608.5892,793.1507,616.9225,772.3174,608.5892,780.6507" style="stroke:#181818;stroke-width:2.0833;"/><line style="stroke:#181818;stroke-width:2.0833;" x1="608.5892" x2="608.5892" y1="589.7922" y2="659.0816"/><polygon fill="#181818" points="600.2559,638.2483,608.5892,659.0816,616.9225,638.2483,608.5892,646.5816" style="stroke:#181818;stroke-width:2.0833;"/><line style="stroke:#181818;stroke-width:2.0833;" x1="608.5892" x2="608.5892" y1="868.8676" y2="889.701"/><line style="stroke:#181818;stroke-width:2.0833;" x1="608.5892" x2="859.3615" y1="889.701" y2="889.701"/><polygon fill="#181818" points="851.0282,751.484,859.3615,730.6507,867.6948,751.484,859.3615,743.1507" style="stroke:#181818;stroke-width:2.0833;"/><line style="stroke:#181818;stroke-width:2.0833;" x1="859.3615" x2="859.3615" y1="564.7922" y2="889.701"/><line style="stroke:#181818;stroke-width:2.0833;" x1="859.3615" x2="790.4298" y1="564.7922" y2="564.7922"/><polygon fill="#181818" points="811.2631,556.4589,790.4298,564.7922,811.2631,573.1255,802.9298,564.7922" style="stroke:#181818;stroke-width:2.0833;"/><line style="stroke:#181818;stroke-width:2.0833;" x1="426.7486" x2="357.8169" y1="564.7922" y2="564.7922"/><polygon fill="#181818" points="349.4836,722.3174,357.8169,743.1507,366.1502,722.3174,357.8169,730.6507" style="stroke:#181818;stroke-width:2.0833;"/><line style="stroke:#181818;stroke-width:2.0833;" x1="357.8169" x2="357.8169" y1="564.7922" y2="914.701"/><line style="stroke:#181818;stroke-width:2.0833;" x1="357.8169" x2="608.5892" y1="914.701" y2="914.701"/><line style="stroke:#181818;stroke-width:2.0833;" x1="608.5892" x2="608.5892" y1="914.701" y2="956.3676"/><polygon fill="#181818" points="600.2559,935.5343,608.5892,956.3676,616.9225,935.5343,608.5892,943.8676" style="stroke:#181818;stroke-width:2.0833;"/><line style="stroke:#181818;stroke-width:2.0833;" x1="608.5892" x2="608.5892" y1="498.1255" y2="539.7922"/><polygon fill="#181818" points="600.2559,518.9589,608.5892,539.7922,616.9225,518.9589,608.5892,527.2922" style="stroke:#181818;stroke-width:2.0833;"/><line style="stroke:#181818;stroke-width:2.0833;" x1="608.5892" x2="608.5892" y1="1032.0845" y2="1073.7512"/><polygon fill="#181818" points="600.2559,1052.9179,608.5892,1073.7512,616.9225,1052.9179,608.5892,1061.2512" style="stroke:#181818;stroke-width:2.0833;"/><line style="stroke:#181818;stroke-width:2.0833;" x1="608.5892" x2="608.5892" y1="1149.4681" y2="1191.1348"/><polygon fill="#181818" points="600.2559,1170.3014,608.5892,1191.1348,616.9225,1170.3014,608.5892,1178.6348" style="stroke:#181818;stroke-width:2.0833;"/><line style="stroke:#181818;stroke-width:2.0833;" x1="608.5892" x2="608.5892" y1="1358.5183" y2="1427.8077"/><polygon fill="#181818" points="600.2559,1406.9744,608.5892,1427.8077,616.9225,1406.9744,608.5892,1415.3077" style="stroke:#181818;stroke-width:2.0833;"/><line style="stroke:#181818;stroke-width:2.0833;" x1="608.5892" x2="608.5892" y1="1503.5246" y2="1524.358"/><line style="stroke:#181818;stroke-width:2.0833;" x1="608.5892" x2="926.3495" y1="1524.358" y2="1524.358"/><polygon fill="#181818" points="918.0161,1445.8934,926.3495,1425.0601,934.6828,1445.8934,926.3495,1437.5601" style="stroke:#181818;stroke-width:2.0833;"/><line style="stroke:#181818;stroke-width:2.0833;" x1="926.3495" x2="926.3495" y1="1333.5183" y2="1524.358"/><line style="stroke:#181818;stroke-width:2.0833;" x1="926.3495" x2="765.9893" y1="1333.5183" y2="1333.5183"/><polygon fill="#181818" points="786.8227,1325.185,765.9893,1333.5183,786.8227,1341.8517,778.4893,1333.5183" style="stroke:#181818;stroke-width:2.0833;"/><line style="stroke:#181818;stroke-width:2.0833;" x1="451.1891" x2="290.8289" y1="1333.5183" y2="1333.5183"/><polygon fill="#181818" points="282.4956,1416.7267,290.8289,1437.5601,299.1623,1416.7267,290.8289,1425.0601" style="stroke:#181818;stroke-width:2.0833;"/><line style="stroke:#181818;stroke-width:2.0833;" x1="290.8289" x2="290.8289" y1="1333.5183" y2="1549.358"/><line style="stroke:#181818;stroke-width:2.0833;" x1="290.8289" x2="608.5892" y1="1549.358" y2="1549.358"/><line style="stroke:#181818;stroke-width:2.0833;" x1="608.5892" x2="608.5892" y1="1549.358" y2="1591.0246"/><polygon fill="#181818" points="600.2559,1570.1913,608.5892,1591.0246,616.9225,1570.1913,608.5892,1578.5246" style="stroke:#181818;stroke-width:2.0833;"/><line style="stroke:#181818;stroke-width:2.0833;" x1="608.5892" x2="608.5892" y1="1266.8517" y2="1308.5183"/><polygon fill="#181818" points="600.2559,1287.685,608.5892,1308.5183,616.9225,1287.685,608.5892,1296.0183" style="stroke:#181818;stroke-width:2.0833;"/><line style="stroke:#181818;stroke-width:2.0833;" x1="492.5878" x2="346.1147" y1="1953.8979" y2="1953.8979"/><line style="stroke:#181818;stroke-width:2.0833;" x1="346.1147" x2="346.1147" y1="1953.8979" y2="1999.7312"/><polygon fill="#181818" points="337.7813,1978.8979,346.1147,1999.7312,354.448,1978.8979,346.1147,1987.2312" style="stroke:#181818;stroke-width:2.0833;"/><line style="stroke:#181818;stroke-width:2.0833;" x1="724.5906" x2="871.0637" y1="1953.8979" y2="1953.8979"/><line style="stroke:#181818;stroke-width:2.0833;" x1="871.0637" x2="871.0637" y1="1953.8979" y2="1999.7312"/><polygon fill="#181818" points="862.7304,1978.8979,871.0637,1999.7312,879.3971,1978.8979,871.0637,1987.2312" style="stroke:#181818;stroke-width:2.0833;"/><line style="stroke:#181818;stroke-width:2.0833;" x1="346.1147" x2="346.1147" y1="2075.4482" y2="2112.9482"/><line style="stroke:#181818;stroke-width:2.0833;" x1="346.1147" x2="583.5892" y1="2112.9482" y2="2112.9482"/><polygon fill="#181818" points="562.7559,2104.6148,583.5892,2112.9482,562.7559,2121.2815,571.0892,2112.9482" style="stroke:#181818;stroke-width:2.0833;"/><line style="stroke:#181818;stroke-width:2.0833;" x1="871.0637" x2="871.0637" y1="2075.4482" y2="2112.9482"/><line style="stroke:#181818;stroke-width:2.0833;" x1="871.0637" x2="633.5892" y1="2112.9482" y2="2112.9482"/><polygon fill="#181818" points="654.4225,2104.6148,633.5892,2112.9482,654.4225,2121.2815,646.0892,2112.9482" style="stroke:#181818;stroke-width:2.0833;"/><line style="stroke:#181818;stroke-width:2.0833;" x1="608.5892" x2="608.5892" y1="1887.2312" y2="1928.8979"/><polygon fill="#181818" points="600.2559,1908.0646,608.5892,1928.8979,616.9225,1908.0646,608.5892,1916.3979" style="stroke:#181818;stroke-width:2.0833;"/><line style="stroke:#181818;stroke-width:2.0833;" x1="608.5892" x2="608.5892" y1="1758.4082" y2="1811.5143"/><polygon fill="#181818" points="600.2559,1790.681,608.5892,1811.5143,616.9225,1790.681,608.5892,1799.0143" style="stroke:#181818;stroke-width:2.0833;"/><line style="stroke:#181818;stroke-width:2.0833;" x1="722.9177" x2="1127.5652" y1="1733.4082" y2="1733.4082"/><polygon fill="#181818" points="1119.2318,1938.2729,1127.5652,1959.1062,1135.8985,1938.2729,1127.5652,1946.6062" style="stroke:#181818;stroke-width:2.0833;"/><line style="stroke:#181818;stroke-width:2.0833;" x1="1127.5652" x2="1127.5652" y1="1733.4082" y2="2204.6148"/><line style="stroke:#181818;stroke-width:2.0833;" x1="1127.5652" x2="633.5892" y1="2204.6148" y2="2204.6148"/><polygon fill="#181818" points="654.4225,2196.2815,633.5892,2204.6148,654.4225,2212.9482,646.0892,2204.6148" style="stroke:#181818;stroke-width:2.0833;"/><line style="stroke:#181818;stroke-width:2.0833;" x1="608.5892" x2="608.5892" y1="2137.9482" y2="2179.6148"/><polygon fill="#181818" points="600.2559,2158.7815,608.5892,2179.6148,616.9225,2158.7815,608.5892,2167.1148" style="stroke:#181818;stroke-width:2.0833;"/><line style="stroke:#181818;stroke-width:2.0833;" x1="608.5892" x2="608.5892" y1="1666.7415" y2="1708.4082"/><polygon fill="#181818" points="600.2559,1687.5749,608.5892,1708.4082,616.9225,1687.5749,608.5892,1695.9082" style="stroke:#181818;stroke-width:2.0833;"/><line style="stroke:#181818;stroke-width:2.0833;" x1="456.2651" x2="296.3643" y1="2296.2815" y2="2296.2815"/><line style="stroke:#181818;stroke-width:2.0833;" x1="296.3643" x2="296.3643" y1="2296.2815" y2="2342.1148"/><polygon fill="#181818" points="288.031,2321.2815,296.3643,2342.1148,304.6977,2321.2815,296.3643,2329.6148" style="stroke:#181818;stroke-width:2.0833;"/><line style="stroke:#181818;stroke-width:2.0833;" x1="760.9133" x2="920.8141" y1="2296.2815" y2="2296.2815"/><line style="stroke:#181818;stroke-width:2.0833;" x1="920.8141" x2="920.8141" y1="2296.2815" y2="2342.1148"/><polygon fill="#181818" points="912.4807,2321.2815,920.8141,2342.1148,929.1474,2321.2815,920.8141,2329.6148" style="stroke:#181818;stroke-width:2.0833;"/><line style="stroke:#181818;stroke-width:2.0833;" x1="296.3643" x2="296.3643" y1="2417.8317" y2="2455.3317"/><line style="stroke:#181818;stroke-width:2.0833;" x1="296.3643" x2="583.5892" y1="2455.3317" y2="2455.3317"/><polygon fill="#181818" points="562.7559,2446.9984,583.5892,2455.3317,562.7559,2463.6651,571.0892,2455.3317" style="stroke:#181818;stroke-width:2.0833;"/><line style="stroke:#181818;stroke-width:2.0833;" x1="920.8141" x2="920.8141" y1="2417.8317" y2="2455.3317"/><line style="stroke:#181818;stroke-width:2.0833;" x1="920.8141" x2="633.5892" y1="2455.3317" y2="2455.3317"/><polygon fill="#181818" points="654.4225,2446.9984,633.5892,2455.3317,654.4225,2463.6651,646.0892,2455.3317" style="stroke:#181818;stroke-width:2.0833;"/><line style="stroke:#181818;stroke-width:2.0833;" x1="608.5892" x2="608.5892" y1="2229.6148" y2="2271.2815"/><polygon fill="#181818" points="600.2559,2250.4482,608.5892,2271.2815,616.9225,2250.4482,608.5892,2258.7815" style="stroke:#181818;stroke-width:2.0833;"/><line style="stroke:#181818;stroke-width:2.0833;" x1="608.5892" x2="608.5892" y1="2480.3317" y2="2521.9984"/><polygon fill="#181818" points="600.2559,2501.1651,608.5892,2521.9984,616.9225,2501.1651,608.5892,2509.4984" style="stroke:#181818;stroke-width:2.0833;"/><line style="stroke:#181818;stroke-width:2.0833;" x1="608.5892" x2="608.5892" y1="2597.7153" y2="2639.382"/><polygon fill="#181818" points="600.2559,2618.5486,608.5892,2639.382,616.9225,2618.5486,608.5892,2626.882" style="stroke:#181818;stroke-width:2.0833;"/><line style="stroke:#181818;stroke-width:2.0833;" x1="608.5892" x2="608.5892" y1="2806.7655" y2="2876.0549"/><polygon fill="#181818" points="600.2559,2855.2216,608.5892,2876.0549,616.9225,2855.2216,608.5892,2863.5549" style="stroke:#181818;stroke-width:2.0833;"/><line style="stroke:#181818;stroke-width:2.0833;" x1="608.5892" x2="608.5892" y1="2951.7718" y2="2972.6052"/><line style="stroke:#181818;stroke-width:2.0833;" x1="608.5892" x2="953.2372" y1="2972.6052" y2="2972.6052"/><polygon fill="#181818" points="944.9039,2894.1406,953.2372,2873.3073,961.5705,2894.1406,953.2372,2885.8073" style="stroke:#181818;stroke-width:2.0833;"/><line style="stroke:#181818;stroke-width:2.0833;" x1="953.2372" x2="953.2372" y1="2781.7655" y2="2972.6052"/><line style="stroke:#181818;stroke-width:2.0833;" x1="953.2372" x2="759.2862" y1="2781.7655" y2="2781.7655"/><polygon fill="#181818" points="780.1196,2773.4322,759.2862,2781.7655,780.1196,2790.0989,771.7862,2781.7655" style="stroke:#181818;stroke-width:2.0833;"/><line style="stroke:#181818;stroke-width:2.0833;" x1="457.8922" x2="263.9412" y1="2781.7655" y2="2781.7655"/><polygon fill="#181818" points="255.6079,2864.9739,263.9412,2885.8073,272.2745,2864.9739,263.9412,2873.3073" style="stroke:#181818;stroke-width:2.0833;"/><line style="stroke:#181818;stroke-width:2.0833;" x1="263.9412" x2="263.9412" y1="2781.7655" y2="2997.6052"/><line style="stroke:#181818;stroke-width:2.0833;" x1="263.9412" x2="608.5892" y1="2997.6052" y2="2997.6052"/><line style="stroke:#181818;stroke-width:2.0833;" x1="608.5892" x2="608.5892" y1="2997.6052" y2="3039.2718"/><polygon fill="#181818" points="600.2559,3018.4385,608.5892,3039.2718,616.9225,3018.4385,608.5892,3026.7718" style="stroke:#181818;stroke-width:2.0833;"/><line style="stroke:#181818;stroke-width:2.0833;" x1="608.5892" x2="608.5892" y1="2715.0989" y2="2756.7655"/><polygon fill="#181818" points="600.2559,2735.9322,608.5892,2756.7655,616.9225,2735.9322,608.5892,2744.2655" style="stroke:#181818;stroke-width:2.0833;"/><line style="stroke:#181818;stroke-width:2.0833;" x1="608.5892" x2="608.5892" y1="3114.9887" y2="3156.6554"/><polygon fill="#181818" points="600.2559,3135.8221,608.5892,3156.6554,616.9225,3135.8221,608.5892,3144.1554" style="stroke:#181818;stroke-width:2.0833;"/><!--SRC=[TLIxSjim4Epn5LTQHH9FIgd8-A6CYzZnn6bIGiIHl15483YG2fDncm_89-PBSe3uK2ovqUDusBszNP2tr7WTz0wC9tX_UQaKJoLTHEeezl1B0LphObi5rpRcnbaNm59LnurjCJrpmM0ur7Ff-GYbSH5VHwY2xbyWvDApKf6YHRXpx2bg2uykfA-FrktXufEhg86_l__0Oy0t6JJ_kqR3P33__XfGnnqsyTt3_VefbswiOro8ngX3LCjRLqGXT1uRXbWZxDo6X5DxRwdGaLopKikddYFAWeYzrVsXqMP-BW9YQXc0X0i3WrID_2HjUQNKlawG5mDAfoqP7V6_hWyB88QBXyyBMSN8nxNRC-XMwAJhC0rW22wiKjT0AUhFiM9Z1jvlwwV5f86OMw7MHO4iGjmsJPyD2iaCTTKQYd3lJ6jn2UjEy8251WsKGgRpOzy6Bslajuabswkc3J1QBA8CquQG3zTKHj3IvqL0gbZYE2_L1xHE6vuUosvqxYyiDQBQGarfWdxUvBtCC_OpY0tP4EaQrfWL7s-e8zoVOH0t1zixOeh7IqjEp9fIM1WsGxI6PaMbzALWKMEIFMY4FvbrCe68bAJGHZQV3yZkE4SB887Soe25XAxJPFN6uaiO0Nfe0m-n7474Gxapr5HYep2uw0fd4oHQnZ5Bqz4qGOt9rjCPH3QLwl2PLLsbUuyGn_i3-NAUg1k6CZinYdC4vnEQPzL6DdiqqpJHTubYYehLWSenu1iiaxqpgYXSZSED2vqlqUJUuJMJR6MgnDQSm-1oX6m_1uvrDnoR3hH-nbhVVNaHjD7sCN3dG-OnoDoxEIL2vZbVcio5F-A8y6hEIcf4rq-Pn4WIUiXljPMygvp_1m00]--></g></svg>