<?xml version="1.0" encoding="UTF-8" standalone="no"?><svg xmlns="http://www.w3.org/2000/svg" xmlns:xlink="http://www.w3.org/1999/xlink" contentStyleType="text/css" height="3125px" preserveAspectRatio="none" style="width:1600px;height:3125px;background:#FFFFFF;" version="1.1" viewBox="0 0 1600 3125" width="1600px" zoomAndPan="magnify"><defs/><g><text fill="#000000" font-family="sans-serif" font-size="29.1667" font-weight="bold" lengthAdjust="spacing" textLength="1293.75" x="150.5208" y="68.7398">Hospital Portal Flow (Login → Pre-round → Bedside → Treatment/NMES → Close)</text><ellipse cx="668.75" cy="119.3685" fill="#222222" rx="20.8333" ry="20.8333" style="stroke:#222222;stroke-width:2.0833333333333335;"/><rect fill="#ADD8E6" height="70.7682" rx="26.0417" ry="26.0417" style="stroke:#0000FF;stroke-width:1.0416666666666667;" width="516.6667" x="410.4167" y="181.8685"/><text fill="#000000" font-family="sans-serif" font-size="25" lengthAdjust="spacing" textLength="475" x="431.25" y="225.9074">Doctor opens the mobile application</text><rect fill="#ADD8E6" height="70.7682" rx="26.0417" ry="26.0417" style="stroke:#0000FF;stroke-width:1.0416666666666667;" width="468.75" x="434.375" y="294.3034"/><text fill="#000000" font-family="sans-serif" font-size="25" lengthAdjust="spacing" textLength="427.0833" x="455.2083" y="338.3423">System displays the login screen</text><rect fill="#ADD8E6" height="70.7682" rx="26.0417" ry="26.0417" style="stroke:#0000FF;stroke-width:1.0416666666666667;" width="377.0833" x="480.2083" y="406.7383"/><text fill="#000000" font-family="sans-serif" font-size="25" lengthAdjust="spacing" textLength="335.4167" x="501.0417" y="450.7772">Doctor enters credentials</text><rect fill="#ADD8E6" height="70.7682" rx="26.0417" ry="26.0417" style="stroke:#0000FF;stroke-width:1.0416666666666667;" width="497.9167" x="419.7917" y="635.2366"/><text fill="#000000" font-family="sans-serif" font-size="25" lengthAdjust="spacing" textLength="456.25" x="440.625" y="679.2755">System shows authentication error</text><rect fill="#ADD8E6" height="70.7682" rx="26.0417" ry="26.0417" style="stroke:#0000FF;stroke-width:1.0416666666666667;" width="412.5" x="462.5" y="766.625"/><text fill="#000000" font-family="sans-serif" font-size="25" lengthAdjust="spacing" textLength="370.8333" x="483.3333" y="810.6639">Doctor re-enters credentials</text><polygon fill="#ADD8E6" points="490.625,519.1732,846.875,519.1732,871.875,544.1732,846.875,569.1732,490.625,569.1732,465.625,544.1732,490.625,519.1732" style="stroke:#0000FF;stroke-width:1.0416666666666667;"/><text fill="#000000" font-family="sans-serif" font-size="22.9167" lengthAdjust="spacing" textLength="35.4167" x="677.0833" y="590.4449">NO</text><text fill="#000000" font-family="sans-serif" font-size="22.9167" lengthAdjust="spacing" textLength="356.25" x="490.625" y="552.1067">System validates credentials?</text><text fill="#000000" font-family="sans-serif" font-size="22.9167" lengthAdjust="spacing" textLength="45.8333" x="419.7917" y="538.7685">YES</text><path d="M915.625,934.0973 L915.625,951.944 L873.9583,960.2773 L915.625,968.6106 L915.625,986.4573 A0,0 0 0 0 915.625,986.4573 L1576.0417,986.4573 A0,0 0 0 0 1576.0417,986.4573 L1576.0417,954.9306 L1555.2083,934.0973 L915.625,934.0973 A0,0 0 0 0 915.625,934.0973 " fill="#D3D3D3" style="stroke:#808080;stroke-width:1.0416666666666667;"/><path d="M1555.2083,934.0973 L1555.2083,954.9306 L1576.0417,954.9306 L1555.2083,934.0973 " fill="#D3D3D3" style="stroke:#808080;stroke-width:1.0416666666666667;"/><text fill="#000000" font-family="sans-serif" font-size="27.0833" lengthAdjust="spacing" textLength="616.6667" x="928.125" y="969.6533">Audit Module: Event stored for audit purposes.</text><rect fill="#ADD8E6" height="70.7682" rx="26.0417" ry="26.0417" style="stroke:#0000FF;stroke-width:1.0416666666666667;" width="410.4167" x="463.5417" y="924.8932"/><text fill="#000000" font-family="sans-serif" font-size="25" lengthAdjust="spacing" textLength="368.75" x="484.375" y="968.9321">System issues access token</text><rect fill="#ADD8E6" height="70.7682" rx="26.0417" ry="26.0417" style="stroke:#0000FF;stroke-width:1.0416666666666667;" width="606.25" x="365.625" y="1037.3281"/><text fill="#000000" font-family="sans-serif" font-size="25" lengthAdjust="spacing" textLength="564.5833" x="386.4583" y="1081.367">Doctor selects current shift and patient list</text><rect fill="#ADD8E6" height="70.7682" rx="26.0417" ry="26.0417" style="stroke:#0000FF;stroke-width:1.0416666666666667;" width="679.1667" x="329.1667" y="1149.763"/><text fill="#000000" font-family="sans-serif" font-size="25" lengthAdjust="spacing" textLength="637.5" x="350" y="1193.8019">System preloads patient data and clinical history</text><rect fill="#ADD8E6" height="70.7682" rx="26.0417" ry="26.0417" style="stroke:#0000FF;stroke-width:1.0416666666666667;" width="652.0833" x="342.7083" y="1378.2613"/><text fill="#000000" font-family="sans-serif" font-size="25" lengthAdjust="spacing" textLength="610.4167" x="363.5417" y="1422.3002">Doctor reviews patient data and plans the visit</text><polygon fill="#ADD8E6" points="521.875,1262.1979,815.625,1262.1979,840.625,1287.1979,815.625,1312.1979,521.875,1312.1979,496.875,1287.1979,521.875,1262.1979" style="stroke:#0000FF;stroke-width:1.0416666666666667;"/><text fill="#000000" font-family="sans-serif" font-size="22.9167" lengthAdjust="spacing" textLength="45.8333" x="677.0833" y="1333.4696">YES</text><text fill="#000000" font-family="sans-serif" font-size="22.9167" lengthAdjust="spacing" textLength="293.75" x="521.875" y="1295.1314">More patients in the list?</text><text fill="#000000" font-family="sans-serif" font-size="22.9167" lengthAdjust="spacing" textLength="35.4167" x="461.4583" y="1281.7932">NO</text><rect fill="#ADD8E6" height="70.7682" rx="26.0417" ry="26.0417" style="stroke:#0000FF;stroke-width:1.0416666666666667;" width="385.4167" x="476.0417" y="1536.5295"/><text fill="#000000" font-family="sans-serif" font-size="25" lengthAdjust="spacing" textLength="343.75" x="496.875" y="1580.5684">Doctor starts bedside visit</text><rect fill="#ADD8E6" height="70.7682" rx="26.0417" ry="26.0417" style="stroke:#0000FF;stroke-width:1.0416666666666667;" width="464.5833" x="436.4583" y="1749.8027"/><text fill="#000000" font-family="sans-serif" font-size="25" lengthAdjust="spacing" textLength="422.9167" x="457.2917" y="1793.8416">Doctor prescribes NMES session</text><polygon fill="#ADD8E6" points="567.7083,1862.2375,769.7917,1862.2375,794.7917,1887.2375,769.7917,1912.2375,567.7083,1912.2375,542.7083,1887.2375,567.7083,1862.2375" style="stroke:#0000FF;stroke-width:1.0416666666666667;"/><text fill="#000000" font-family="sans-serif" font-size="22.9167" lengthAdjust="spacing" textLength="202.0833" x="567.7083" y="1895.1711">Device available?</text><text fill="#000000" font-family="sans-serif" font-size="22.9167" lengthAdjust="spacing" textLength="45.8333" x="496.875" y="1881.8329">YES</text><text fill="#000000" font-family="sans-serif" font-size="22.9167" lengthAdjust="spacing" textLength="35.4167" x="794.7917" y="1881.8329">NO</text><rect fill="#ADD8E6" height="70.7682" rx="26.0417" ry="26.0417" style="stroke:#0000FF;stroke-width:1.0416666666666667;" width="591.6667" x="84.8958" y="1933.0709"/><text fill="#000000" font-family="sans-serif" font-size="25" lengthAdjust="spacing" textLength="550" x="105.7292" y="1977.1098">Nurse applies NMES according to protocol</text><rect fill="#ADD8E6" height="70.7682" rx="26.0417" ry="26.0417" style="stroke:#0000FF;stroke-width:1.0416666666666667;" width="477.0833" x="718.2292" y="1933.0709"/><text fill="#000000" font-family="sans-serif" font-size="25" lengthAdjust="spacing" textLength="435.4167" x="739.0625" y="1977.1098">Nurse reschedules NMES session</text><polygon fill="#ADD8E6" points="668.75,2016.3391,693.75,2041.3391,668.75,2066.3391,643.75,2041.3391,668.75,2016.3391" style="stroke:#0000FF;stroke-width:1.0416666666666667;"/><polygon fill="#ADD8E6" points="571.875,1648.9644,765.625,1648.9644,790.625,1673.9644,765.625,1698.9644,571.875,1698.9644,546.875,1673.9644,571.875,1648.9644" style="stroke:#0000FF;stroke-width:1.0416666666666667;"/><text fill="#000000" font-family="sans-serif" font-size="22.9167" lengthAdjust="spacing" textLength="45.8333" x="677.0833" y="1720.2362">YES</text><text fill="#000000" font-family="sans-serif" font-size="22.9167" lengthAdjust="spacing" textLength="193.75" x="571.875" y="1681.898">NMES indicated?</text><polygon fill="#ADD8E6" points="668.75,2108.0058,693.75,2133.0058,668.75,2158.0058,643.75,2133.0058,668.75,2108.0058" style="stroke:#0000FF;stroke-width:1.0416666666666667;"/><polygon fill="#ADD8E6" points="529.1667,2199.6724,808.3333,2199.6724,833.3333,2224.6724,808.3333,2249.6724,529.1667,2249.6724,504.1667,2224.6724,529.1667,2199.6724" style="stroke:#0000FF;stroke-width:1.0416666666666667;"/><text fill="#000000" font-family="sans-serif" font-size="22.9167" lengthAdjust="spacing" textLength="279.1667" x="529.1667" y="2232.606">Active treatment order?</text><text fill="#000000" font-family="sans-serif" font-size="22.9167" lengthAdjust="spacing" textLength="45.8333" x="458.3333" y="2219.2678">YES</text><text fill="#000000" font-family="sans-serif" font-size="22.9167" lengthAdjust="spacing" textLength="35.4167" x="833.3333" y="2219.2678">NO</text><rect fill="#ADD8E6" height="70.7682" rx="26.0417" ry="26.0417" style="stroke:#0000FF;stroke-width:1.0416666666666667;" width="606.25" x="22.9167" y="2270.5058"/><text fill="#000000" font-family="sans-serif" font-size="25" lengthAdjust="spacing" textLength="564.5833" x="43.75" y="2314.5447">Nurse administers treatment as prescribed</text><rect fill="#ADD8E6" height="70.7682" rx="26.0417" ry="26.0417" style="stroke:#0000FF;stroke-width:1.0416666666666667;" width="681.25" x="670.8333" y="2270.5058"/><text fill="#000000" font-family="sans-serif" font-size="25" lengthAdjust="spacing" textLength="639.5833" x="691.6667" y="2314.5447">Nurse requests clarification before administering</text><polygon fill="#ADD8E6" points="668.75,2353.774,693.75,2378.774,668.75,2403.774,643.75,2378.774,668.75,2353.774" style="stroke:#0000FF;stroke-width:1.0416666666666667;"/><rect fill="#ADD8E6" height="70.7682" rx="26.0417" ry="26.0417" style="stroke:#0000FF;stroke-width:1.0416666666666667;" width="747.9167" x="294.7917" y="2445.4407"/><text fill="#000000" font-family="sans-serif" font-size="25" lengthAdjust="spacing" textLength="706.25" x="315.625" y="2489.4796">Doctor validates the visit note and signs electronically</text><rect fill="#ADD8E6" height="70.7682" rx="26.0417" ry="26.0417" style="stroke:#0000FF;stroke-width:1.0416666666666667;" width="627.0833" x="355.2083" y="2557.8756"/><text fill="#000000" font-family="sans-serif" font-size="25" lengthAdjust="spacing" textLength="585.4167" x="376.0417" y="2601.9145">System saves the note and updates the EHR</text><rect fill="#ADD8E6" height="70.7682" rx="26.0417" ry="26.0417" style="stroke:#0000FF;stroke-width:1.0416666666666667;" width="710.4167" x="313.5417" y="2786.3739"/><text fill="#000000" font-family="sans-serif" font-size="25" lengthAdjust="spacing" textLength="668.75" x="334.375" y="2830.4128">Doctor performs bedside steps for the next patient</text><polygon fill="#ADD8E6" points="530.2083,2670.3105,807.2917,2670.3105,832.2917,2695.3105,807.2917,2720.3105,530.2083,2720.3105,505.2083,2695.3105,530.2083,2670.3105" style="stroke:#0000FF;stroke-width:1.0416666666666667;"/><text fill="#000000" font-family="sans-serif" font-size="22.9167" lengthAdjust="spacing" textLength="45.8333" x="677.0833" y="2741.5822">YES</text><text fill="#000000" font-family="sans-serif" font-size="22.9167" lengthAdjust="spacing" textLength="277.0833" x="530.2083" y="2703.244">More bedside patients?</text><text fill="#000000" font-family="sans-serif" font-size="22.9167" lengthAdjust="spacing" textLength="35.4167" x="469.7917" y="2689.9058">NO</text><rect fill="#ADD8E6" height="70.7682" rx="26.0417" ry="26.0417" style="stroke:#0000FF;stroke-width:1.0416666666666667;" width="391.6667" x="472.9167" y="2944.6421"/><text fill="#000000" font-family="sans-serif" font-size="25" lengthAdjust="spacing" textLength="350" x="493.75" y="2988.681">Doctor finalizes daily round</text><ellipse cx="668.75" cy="3079.9937" fill="none" rx="22.9167" ry="22.9167" style="stroke:#222222;stroke-width:2.0833333333333335;"/><ellipse cx="668.75" cy="3079.9937" fill="#222222" rx="12.5" ry="12.5" style="stroke:#111111;stroke-width:2.0833333333333335;"/><line style="stroke:#181818;stroke-width:2.0833333333333335;" x1="668.75" x2="668.75" y1="140.2018" y2="181.8685"/><polygon fill="#181818" points="660.4167,161.0352,668.75,181.8685,677.0833,161.0352,668.75,169.3685" style="stroke:#181818;stroke-width:2.0833333333333335;"/><line style="stroke:#181818;stroke-width:2.0833333333333335;" x1="668.75" x2="668.75" y1="252.6367" y2="294.3034"/><polygon fill="#181818" points="660.4167,273.4701,668.75,294.3034,677.0833,273.4701,668.75,281.8034" style="stroke:#181818;stroke-width:2.0833333333333335;"/><line style="stroke:#181818;stroke-width:2.0833333333333335;" x1="668.75" x2="668.75" y1="365.0716" y2="406.7383"/><polygon fill="#181818" points="660.4167,385.9049,668.75,406.7383,677.0833,385.9049,668.75,394.2383" style="stroke:#181818;stroke-width:2.0833333333333335;"/><line style="stroke:#181818;stroke-width:2.0833333333333335;" x1="668.75" x2="668.75" y1="706.0048" y2="766.625"/><polygon fill="#181818" points="660.4167,745.7916,668.75,766.625,677.0833,745.7916,668.75,754.125" style="stroke:#181818;stroke-width:2.0833333333333335;"/><line style="stroke:#181818;stroke-width:2.0833333333333335;" x1="668.75" x2="668.75" y1="569.1732" y2="635.2366"/><polygon fill="#181818" points="660.4167,614.4033,668.75,635.2366,677.0833,614.4033,668.75,622.7366" style="stroke:#181818;stroke-width:2.0833333333333335;"/><line style="stroke:#181818;stroke-width:2.0833333333333335;" x1="668.75" x2="668.75" y1="837.3932" y2="858.2265"/><line style="stroke:#181818;stroke-width:2.0833333333333335;" x1="668.75" x2="942.7083" y1="858.2265" y2="858.2265"/><polygon fill="#181818" points="934.375,724.9583,942.7083,704.125,951.0417,724.9583,942.7083,716.625" style="stroke:#181818;stroke-width:2.0833333333333335;"/><line style="stroke:#181818;stroke-width:2.0833333333333335;" x1="942.7083" x2="942.7083" y1="544.1732" y2="858.2265"/><line style="stroke:#181818;stroke-width:2.0833333333333335;" x1="942.7083" x2="871.875" y1="544.1732" y2="544.1732"/><polygon fill="#181818" points="892.7083,535.8398,871.875,544.1732,892.7083,552.5065,884.375,544.1732" style="stroke:#181818;stroke-width:2.0833333333333335;"/><line style="stroke:#181818;stroke-width:2.0833333333333335;" x1="465.625" x2="394.7917" y1="544.1732" y2="544.1732"/><polygon fill="#181818" points="386.4583,695.7916,394.7917,716.625,403.125,695.7916,394.7917,704.125" style="stroke:#181818;stroke-width:2.0833333333333335;"/><line style="stroke:#181818;stroke-width:2.0833333333333335;" x1="394.7917" x2="394.7917" y1="544.1732" y2="883.2265"/><line style="stroke:#181818;stroke-width:2.0833333333333335;" x1="394.7917" x2="668.75" y1="883.2265" y2="883.2265"/><line style="stroke:#181818;stroke-width:2.0833333333333335;" x1="668.75" x2="668.75" y1="883.2265" y2="924.8932"/><polygon fill="#181818" points="660.4167,904.0599,668.75,924.8932,677.0833,904.0599,668.75,912.3932" style="stroke:#181818;stroke-width:2.0833333333333335;"/><line style="stroke:#181818;stroke-width:2.0833333333333335;" x1="668.75" x2="668.75" y1="477.5065" y2="519.1732"/><polygon fill="#181818" points="660.4167,498.3398,668.75,519.1732,677.0833,498.3398,668.75,506.6732" style="stroke:#181818;stroke-width:2.0833333333333335;"/><line style="stroke:#181818;stroke-width:2.0833333333333335;" x1="668.75" x2="668.75" y1="995.6614" y2="1037.3281"/><polygon fill="#181818" points="660.4167,1016.4948,668.75,1037.3281,677.0833,1016.4948,668.75,1024.8281" style="stroke:#181818;stroke-width:2.0833333333333335;"/><line style="stroke:#181818;stroke-width:2.0833333333333335;" x1="668.75" x2="668.75" y1="1108.0963" y2="1149.763"/><polygon fill="#181818" points="660.4167,1128.9296,668.75,1149.763,677.0833,1128.9296,668.75,1137.263" style="stroke:#181818;stroke-width:2.0833333333333335;"/><line style="stroke:#181818;stroke-width:2.0833333333333335;" x1="668.75" x2="668.75" y1="1312.1979" y2="1378.2613"/><polygon fill="#181818" points="660.4167,1357.428,668.75,1378.2613,677.0833,1357.428,668.75,1365.7613" style="stroke:#181818;stroke-width:2.0833333333333335;"/><line style="stroke:#181818;stroke-width:2.0833333333333335;" x1="668.75" x2="668.75" y1="1449.0295" y2="1469.8629"/><line style="stroke:#181818;stroke-width:2.0833333333333335;" x1="668.75" x2="1019.7917" y1="1469.8629" y2="1469.8629"/><polygon fill="#181818" points="1011.4583,1396.1405,1019.7917,1375.3072,1028.125,1396.1405,1019.7917,1387.8072" style="stroke:#181818;stroke-width:2.0833333333333335;"/><line style="stroke:#181818;stroke-width:2.0833333333333335;" x1="1019.7917" x2="1019.7917" y1="1287.1979" y2="1469.8629"/><line style="stroke:#181818;stroke-width:2.0833333333333335;" x1="1019.7917" x2="840.625" y1="1287.1979" y2="1287.1979"/><polygon fill="#181818" points="861.4583,1278.8645,840.625,1287.1979,861.4583,1295.5312,853.125,1287.1979" style="stroke:#181818;stroke-width:2.0833333333333335;"/><line style="stroke:#181818;stroke-width:2.0833333333333335;" x1="496.875" x2="317.7083" y1="1287.1979" y2="1287.1979"/><polygon fill="#181818" points="309.375,1366.9739,317.7083,1387.8072,326.0417,1366.9739,317.7083,1375.3072" style="stroke:#181818;stroke-width:2.0833333333333335;"/><line style="stroke:#181818;stroke-width:2.0833333333333335;" x1="317.7083" x2="317.7083" y1="1287.1979" y2="1494.8629"/><line style="stroke:#181818;stroke-width:2.0833333333333335;" x1="317.7083" x2="668.75" y1="1494.8629" y2="1494.8629"/><line style="stroke:#181818;stroke-width:2.0833333333333335;" x1="668.75" x2="668.75" y1="1494.8629" y2="1536.5295"/><polygon fill="#181818" points="660.4167,1515.6962,668.75,1536.5295,677.0833,1515.6962,668.75,1524.0295" style="stroke:#181818;stroke-width:2.0833333333333335;"/><line style="stroke:#181818;stroke-width:2.0833333333333335;" x1="668.75" x2="668.75" y1="1220.5312" y2="1262.1979"/><polygon fill="#181818" points="660.4167,1241.3645,668.75,1262.1979,677.0833,1241.3645,668.75,1249.6979" style="stroke:#181818;stroke-width:2.0833333333333335;"/><line style="stroke:#181818;stroke-width:2.0833333333333335;" x1="542.7083" x2="380.7292" y1="1887.2375" y2="1887.2375"/><line style="stroke:#181818;stroke-width:2.0833333333333335;" x1="380.7292" x2="380.7292" y1="1887.2375" y2="1933.0709"/><polygon fill="#181818" points="372.3958,1912.2375,380.7292,1933.0709,389.0625,1912.2375,380.7292,1920.5709" style="stroke:#181818;stroke-width:2.0833333333333335;"/><line style="stroke:#181818;stroke-width:2.0833333333333335;" x1="794.7917" x2="956.7708" y1="1887.2375" y2="1887.2375"/><line style="stroke:#181818;stroke-width:2.0833333333333335;" x1="956.7708" x2="956.7708" y1="1887.2375" y2="1933.0709"/><polygon fill="#181818" points="948.4375,1912.2375,956.7708,1933.0709,965.1042,1912.2375,956.7708,1920.5709" style="stroke:#181818;stroke-width:2.0833333333333335;"/><line style="stroke:#181818;stroke-width:2.0833333333333335;" x1="380.7292" x2="380.7292" y1="2003.8391" y2="2041.3391"/><line style="stroke:#181818;stroke-width:2.0833333333333335;" x1="380.7292" x2="643.75" y1="2041.3391" y2="2041.3391"/><polygon fill="#181818" points="622.9167,2033.0058,643.75,2041.3391,622.9167,2049.6724,631.25,2041.3391" style="stroke:#181818;stroke-width:2.0833333333333335;"/><line style="stroke:#181818;stroke-width:2.0833333333333335;" x1="956.7708" x2="956.7708" y1="2003.8391" y2="2041.3391"/><line style="stroke:#181818;stroke-width:2.0833333333333335;" x1="956.7708" x2="693.75" y1="2041.3391" y2="2041.3391"/><polygon fill="#181818" points="714.5833,2033.0058,693.75,2041.3391,714.5833,2049.6724,706.25,2041.3391" style="stroke:#181818;stroke-width:2.0833333333333335;"/><line style="stroke:#181818;stroke-width:2.0833333333333335;" x1="668.75" x2="668.75" y1="1820.5709" y2="1862.2375"/><polygon fill="#181818" points="660.4167,1841.4042,668.75,1862.2375,677.0833,1841.4042,668.75,1849.7375" style="stroke:#181818;stroke-width:2.0833333333333335;"/><line style="stroke:#181818;stroke-width:2.0833333333333335;" x1="668.75" x2="668.75" y1="1698.9644" y2="1749.8027"/><polygon fill="#181818" points="660.4167,1728.9693,668.75,1749.8027,677.0833,1728.9693,668.75,1737.3027" style="stroke:#181818;stroke-width:2.0833333333333335;"/><line style="stroke:#181818;stroke-width:2.0833333333333335;" x1="790.625" x2="1236.9792" y1="1673.9644" y2="1673.9644"/><polygon fill="#181818" points="1228.6458,1871.6125,1236.9792,1892.4459,1245.3125,1871.6125,1236.9792,1879.9459" style="stroke:#181818;stroke-width:2.0833333333333335;"/><line style="stroke:#181818;stroke-width:2.0833333333333335;" x1="1236.9792" x2="1236.9792" y1="1673.9644" y2="2133.0058"/><line style="stroke:#181818;stroke-width:2.0833333333333335;" x1="1236.9792" x2="693.75" y1="2133.0058" y2="2133.0058"/><polygon fill="#181818" points="714.5833,2124.6724,693.75,2133.0058,714.5833,2141.3391,706.25,2133.0058" style="stroke:#181818;stroke-width:2.0833333333333335;"/><line style="stroke:#181818;stroke-width:2.0833333333333335;" x1="668.75" x2="668.75" y1="2066.3391" y2="2108.0058"/><polygon fill="#181818" points="660.4167,2087.1724,668.75,2108.0058,677.0833,2087.1724,668.75,2095.5058" style="stroke:#181818;stroke-width:2.0833333333333335;"/><line style="stroke:#181818;stroke-width:2.0833333333333335;" x1="668.75" x2="668.75" y1="1607.2978" y2="1648.9644"/><polygon fill="#181818" points="660.4167,1628.1311,668.75,1648.9644,677.0833,1628.1311,668.75,1636.4644" style="stroke:#181818;stroke-width:2.0833333333333335;"/><line style="stroke:#181818;stroke-width:2.0833333333333335;" x1="504.1667" x2="326.0417" y1="2224.6724" y2="2224.6724"/><line style="stroke:#181818;stroke-width:2.0833333333333335;" x1="326.0417" x2="326.0417" y1="2224.6724" y2="2270.5058"/><polygon fill="#181818" points="317.7083,2249.6724,326.0417,2270.5058,334.375,2249.6724,326.0417,2258.0058" style="stroke:#181818;stroke-width:2.0833333333333335;"/><line style="stroke:#181818;stroke-width:2.0833333333333335;" x1="833.3333" x2="1011.4583" y1="2224.6724" y2="2224.6724"/><line style="stroke:#181818;stroke-width:2.0833333333333335;" x1="1011.4583" x2="1011.4583" y1="2224.6724" y2="2270.5058"/><polygon fill="#181818" points="1003.125,2249.6724,1011.4583,2270.5058,1019.7917,2249.6724,1011.4583,2258.0058" style="stroke:#181818;stroke-width:2.0833333333333335;"/><line style="stroke:#181818;stroke-width:2.0833333333333335;" x1="326.0417" x2="326.0417" y1="2341.274" y2="2378.774"/><line style="stroke:#181818;stroke-width:2.0833333333333335;" x1="326.0417" x2="643.75" y1="2378.774" y2="2378.774"/><polygon fill="#181818" points="622.9167,2370.4407,643.75,2378.774,622.9167,2387.1073,631.25,2378.774" style="stroke:#181818;stroke-width:2.0833333333333335;"/><line style="stroke:#181818;stroke-width:2.0833333333333335;" x1="1011.4583" x2="1011.4583" y1="2341.274" y2="2378.774"/><line style="stroke:#181818;stroke-width:2.0833333333333335;" x1="1011.4583" x2="693.75" y1="2378.774" y2="2378.774"/><polygon fill="#181818" points="714.5833,2370.4407,693.75,2378.774,714.5833,2387.1073,706.25,2378.774" style="stroke:#181818;stroke-width:2.0833333333333335;"/><line style="stroke:#181818;stroke-width:2.0833333333333335;" x1="668.75" x2="668.75" y1="2158.0058" y2="2199.6724"/><polygon fill="#181818" points="660.4167,2178.8391,668.75,2199.6724,677.0833,2178.8391,668.75,2187.1724" style="stroke:#181818;stroke-width:2.0833333333333335;"/><line style="stroke:#181818;stroke-width:2.0833333333333335;" x1="668.75" x2="668.75" y1="2403.774" y2="2445.4407"/><polygon fill="#181818" points="660.4167,2424.6073,668.75,2445.4407,677.0833,2424.6073,668.75,2432.9407" style="stroke:#181818;stroke-width:2.0833333333333335;"/><line style="stroke:#181818;stroke-width:2.0833333333333335;" x1="668.75" x2="668.75" y1="2516.2089" y2="2557.8756"/><polygon fill="#181818" points="660.4167,2537.0422,668.75,2557.8756,677.0833,2537.0422,668.75,2545.3756" style="stroke:#181818;stroke-width:2.0833333333333335;"/><line style="stroke:#181818;stroke-width:2.0833333333333335;" x1="668.75" x2="668.75" y1="2720.3105" y2="2786.3739"/><polygon fill="#181818" points="660.4167,2765.5406,668.75,2786.3739,677.0833,2765.5406,668.75,2773.8739" style="stroke:#181818;stroke-width:2.0833333333333335;"/><line style="stroke:#181818;stroke-width:2.0833333333333335;" x1="668.75" x2="668.75" y1="2857.1421" y2="2877.9755"/><line style="stroke:#181818;stroke-width:2.0833333333333335;" x1="668.75" x2="1048.9583" y1="2877.9755" y2="2877.9755"/><polygon fill="#181818" points="1040.625,2804.2531,1048.9583,2783.4198,1057.2917,2804.2531,1048.9583,2795.9198" style="stroke:#181818;stroke-width:2.0833333333333335;"/><line style="stroke:#181818;stroke-width:2.0833333333333335;" x1="1048.9583" x2="1048.9583" y1="2695.3105" y2="2877.9755"/><line style="stroke:#181818;stroke-width:2.0833333333333335;" x1="1048.9583" x2="832.2917" y1="2695.3105" y2="2695.3105"/><polygon fill="#181818" points="853.125,2686.9771,832.2917,2695.3105,853.125,2703.6438,844.7917,2695.3105" style="stroke:#181818;stroke-width:2.0833333333333335;"/><line style="stroke:#181818;stroke-width:2.0833333333333335;" x1="505.2083" x2="288.5417" y1="2695.3105" y2="2695.3105"/><polygon fill="#181818" points="280.2083,2775.0865,288.5417,2795.9198,296.875,2775.0865,288.5417,2783.4198" style="stroke:#181818;stroke-width:2.0833333333333335;"/><line style="stroke:#181818;stroke-width:2.0833333333333335;" x1="288.5417" x2="288.5417" y1="2695.3105" y2="2902.9755"/><line style="stroke:#181818;stroke-width:2.0833333333333335;" x1="288.5417" x2="668.75" y1="2902.9755" y2="2902.9755"/><line style="stroke:#181818;stroke-width:2.0833333333333335;" x1="668.75" x2="668.75" y1="2902.9755" y2="2944.6421"/><polygon fill="#181818" points="660.4167,2923.8088,668.75,2944.6421,677.0833,2923.8088,668.75,2932.1421" style="stroke:#181818;stroke-width:2.0833333333333335;"/><line style="stroke:#181818;stroke-width:2.0833333333333335;" x1="668.75" x2="668.75" y1="2628.6438" y2="2670.3105"/><polygon fill="#181818" points="660.4167,2649.4771,668.75,2670.3105,677.0833,2649.4771,668.75,2657.8105" style="stroke:#181818;stroke-width:2.0833333333333335;"/><line style="stroke:#181818;stroke-width:2.0833333333333335;" x1="668.75" x2="668.75" y1="3015.4104" y2="3057.077"/><polygon fill="#181818" points="660.4167,3036.2437,668.75,3057.077,677.0833,3036.2437,668.75,3044.577" style="stroke:#181818;stroke-width:2.0833333333333335;"/><!--SRC=[TLIxSjim4Epn5LTQHH9FIgd8-A6CYzZnn6bIGiIHl15483YG2fDncm_89-PBSe3uK2ovqUDusBszNP2tr7WTz0wC9tX_UQaKJoLTHEeezl1B0LphObi5rpRcnbaNm59LnurjCJrpmM0ur7Ff-GYbSH5VHwY2xbyWvDApKf6YHRXpx2bg2uykfA-FrktXufEhg86_l__0Oy0t6JJ_kqR3P33__XfGnnqsyTt3_VefbswiOro8ngX3LCjRLqGXT1uRXbWZxDo6X5DxRwdGaLopKikddYFAWeYzrVsXqMP-BW9YQXc0X0i3WrID_2HjUQNKlawG5mDAfoqP7V6_hWyB88QBXyyBMSN8nxNRC-XMwAJhC0rW22wiKjT0AUhFiM9Z1jvlwwV5f86OMw7MHO4iGjmsJPyD2iaCTTKQYd3lJ6jn2UjEy8251WsKGgRpOzy6Bslajuabswkc3J1QBA8CquQG3zTKHj3IvqL0gbZYE2_L1xHE6vuUosvqxYyiDQBQGarfWdxUvBtCC_OpY0tP4EaQrfWL7s-e8zoVOH0t1zixOeh7IqjEp9fIM1WsGxI6PaMbzALWKMEIFMY4FvbrCe68bAJGHZQV3yZkE4SB887Soe25XAxJPFN6uaiO0Nfe0m-n7474Gxapr5HYep2uw0fd4oHQnZ5Bqz4qGOt9rjCPH3QLwl2PLLsbUuyGn_i3-NAUg1k6CZinYdC4vnEQPzL6DdiqqpJHTubYYehLWSenu1iiaxqpgYXSZSED2vqlqUJUuJMJR6MgnDQSm-1oX6m_1uvrDnoR3hH-nbhVVNaHjD7sCN3dG-OnoDoxEIL2vZbVcio5F-A8y6hEIcf4rq-Pn4WIUiXljPMygvp_1m00]--></g></svg>