<?xml version="1.0" encoding="UTF-8" standalone="no"?><svg xmlns="http://www.w3.org/2000/svg" xmlns:xlink="http://www.w3.org/1999/xlink" contentStyleType="text/css" height="3047.9167px" preserveAspectRatio="none" style="width:5985px;height:3047px;background:#FFFFFF;" version="1.1" viewBox="0 0 5985 3047" width="5985.4167px" zoomAndPan="magnify"><defs/><g><text fill="#000000" font-family="sans-serif" font-size="29.1667" font-weight="bold" lengthAdjust="spacing" textLength="768.75" x="2605.4688" y="68.7398">Hospital Portal - Physiotherapist - Bedside visit</text><rect fill="none" height="43.6523" style="stroke:none;stroke-width:2.0833333333333335;" width="5917.1875" x="31.25" y="104.2542"/><rect fill="#ADD8E6" height="70.7682" rx="26.0417" ry="26.0417" style="stroke:#0000FF;stroke-width:1.0416666666666667;" width="516.6667" x="796.875" y="241.6565"/><text fill="#000000" font-family="sans-serif" font-size="25" lengthAdjust="spacing" textLength="475" x="817.7083" y="285.6954">Doctor opens the mobile application</text><rect fill="#ADD8E6" height="70.7682" rx="26.0417" ry="26.0417" style="stroke:#0000FF;stroke-width:1.0416666666666667;" width="429.1667" x="840.625" y="466.5263"/><text fill="#000000" font-family="sans-serif" font-size="25" lengthAdjust="spacing" textLength="387.5" x="861.4583" y="510.5652">Doctor enters the credentials</text><rect fill="#ADD8E6" height="70.7682" rx="26.0417" ry="26.0417" style="stroke:#0000FF;stroke-width:1.0416666666666667;" width="464.5833" x="822.9167" y="818.0796"/><text fill="#000000" font-family="sans-serif" font-size="25" lengthAdjust="spacing" textLength="422.9167" x="843.75" y="862.1185">Doctor re-enters the credentials</text><rect fill="#ADD8E6" height="70.7682" rx="26.0417" ry="26.0417" style="stroke:#0000FF;stroke-width:1.0416666666666667;" width="658.3333" x="726.0417" y="1088.7828"/><text fill="#000000" font-family="sans-serif" font-size="25" lengthAdjust="spacing" textLength="616.6667" x="746.875" y="1132.8217">Doctor selects the current shift and patient list</text><rect fill="#ADD8E6" height="70.7682" rx="26.0417" ry="26.0417" style="stroke:#0000FF;stroke-width:1.0416666666666667;" width="652.0833" x="729.1667" y="1538.0493"/><text fill="#000000" font-family="sans-serif" font-size="25" lengthAdjust="spacing" textLength="610.4167" x="750" y="1582.0882">Doctor reviews patient data and plans the visit</text><rect fill="#ADD8E6" height="70.7682" rx="26.0417" ry="26.0417" style="stroke:#0000FF;stroke-width:1.0416666666666667;" width="437.5" x="836.4583" y="1650.4842"/><text fill="#000000" font-family="sans-serif" font-size="25" lengthAdjust="spacing" textLength="395.8333" x="857.2917" y="1694.5231">Doctor starts the bedside visit</text><rect fill="#555555" height="12.5" rx="5.2083" ry="5.2083" style="stroke:#555555;stroke-width:2.0833333333333335;" width="1358.3333" x="95.8333" y="1762.9191"/><rect fill="#ADD8E6" height="70.7682" rx="26.0417" ry="26.0417" style="stroke:#0000FF;stroke-width:1.0416666666666667;" width="506.25" x="154.1667" y="1917.924"/><text fill="#000000" font-family="sans-serif" font-size="25" lengthAdjust="spacing" textLength="464.5833" x="175" y="1961.9629">Doctor prescribes an NMES session</text><polygon fill="#ADD8E6" points="295.8333,1817.0858,518.75,1817.0858,543.75,1842.0858,518.75,1867.0858,295.8333,1867.0858,270.8333,1842.0858,295.8333,1817.0858" style="stroke:#0000FF;stroke-width:1.0416666666666667;"/><text fill="#000000" font-family="sans-serif" font-size="22.9167" lengthAdjust="spacing" textLength="45.8333" x="415.625" y="1888.3575">YES</text><text fill="#000000" font-family="sans-serif" font-size="22.9167" lengthAdjust="spacing" textLength="222.9167" x="295.8333" y="1850.0193">Is NMES indicated?</text><polygon fill="#ADD8E6" points="407.2917,2336.5438,432.2917,2361.5438,407.2917,2386.5438,382.2917,2361.5438,407.2917,2336.5438" style="stroke:#0000FF;stroke-width:1.0416666666666667;"/><rect fill="#ADD8E6" height="70.7682" rx="26.0417" ry="26.0417" style="stroke:#0000FF;stroke-width:1.0416666666666667;" width="747.9167" x="681.25" y="2482.3771"/><text fill="#000000" font-family="sans-serif" font-size="25" lengthAdjust="spacing" textLength="706.25" x="702.0833" y="2526.416">Doctor validates the visit note and signs electronically</text><rect fill="#ADD8E6" height="70.7682" rx="26.0417" ry="26.0417" style="stroke:#0000FF;stroke-width:1.0416666666666667;" width="514.5833" x="797.9167" y="2707.2469"/><text fill="#000000" font-family="sans-serif" font-size="25" lengthAdjust="spacing" textLength="472.9167" x="818.75" y="2751.2858">Doctor proceeds to the next patient</text><polygon fill="#ADD8E6" points="908.3333,1421.9859,1202.0833,1421.9859,1227.0833,1446.9859,1202.0833,1471.9859,908.3333,1471.9859,883.3333,1446.9859,908.3333,1421.9859" style="stroke:#0000FF;stroke-width:1.0416666666666667;"/><text fill="#000000" font-family="sans-serif" font-size="22.9167" lengthAdjust="spacing" textLength="45.8333" x="1063.5417" y="1493.2576">YES</text><text fill="#000000" font-family="sans-serif" font-size="22.9167" lengthAdjust="spacing" textLength="293.75" x="908.3333" y="1454.9194">More patients in the list?</text><text fill="#000000" font-family="sans-serif" font-size="22.9167" lengthAdjust="spacing" textLength="35.4167" x="847.9167" y="1441.5812">NO</text><rect fill="#ADD8E6" height="70.7682" rx="26.0417" ry="26.0417" style="stroke:#0000FF;stroke-width:1.0416666666666667;" width="443.75" x="833.3333" y="2865.5151"/><text fill="#000000" font-family="sans-serif" font-size="25" lengthAdjust="spacing" textLength="402.0833" x="854.1667" y="2909.554">Doctor finalizes the daily round</text><ellipse cx="1055.2083" cy="3000.8667" fill="none" rx="22.9167" ry="22.9167" style="stroke:#222222;stroke-width:2.0833333333333335;"/><ellipse cx="1055.2083" cy="3000.8667" fill="#222222" rx="12.5" ry="12.5" style="stroke:#111111;stroke-width:2.0833333333333335;"/><line style="stroke:#000000;stroke-width:3.125;" x1="31.25" x2="31.25" y1="104.2542" y2="3023.7834"/><rect fill="#ADD8E6" height="70.7682" rx="26.0417" ry="26.0417" style="stroke:#0000FF;stroke-width:1.0416666666666667;" width="468.75" x="2219.7917" y="354.0914"/><text fill="#000000" font-family="sans-serif" font-size="25" lengthAdjust="spacing" textLength="427.0833" x="2240.625" y="398.1303">System displays the login screen</text><rect fill="#ADD8E6" height="70.7682" rx="26.0417" ry="26.0417" style="stroke:#0000FF;stroke-width:1.0416666666666667;" width="497.9167" x="2205.2083" y="695.0246"/><text fill="#000000" font-family="sans-serif" font-size="25" lengthAdjust="spacing" textLength="456.25" x="2226.0417" y="739.0635">System shows authentication error</text><polygon fill="#ADD8E6" points="2276.0417,578.9612,2632.2917,578.9612,2657.2917,603.9612,2632.2917,628.9612,2276.0417,628.9612,2251.0417,603.9612,2276.0417,578.9612" style="stroke:#0000FF;stroke-width:1.0416666666666667;"/><text fill="#000000" font-family="sans-serif" font-size="22.9167" lengthAdjust="spacing" textLength="35.4167" x="2462.5" y="650.233">NO</text><text fill="#000000" font-family="sans-serif" font-size="22.9167" lengthAdjust="spacing" textLength="356.25" x="2276.0417" y="611.8947">System validates credentials?</text><text fill="#000000" font-family="sans-serif" font-size="22.9167" lengthAdjust="spacing" textLength="45.8333" x="2205.2083" y="598.5565">YES</text><rect fill="#ADD8E6" height="70.7682" rx="26.0417" ry="26.0417" style="stroke:#0000FF;stroke-width:1.0416666666666667;" width="452.0833" x="2228.125" y="976.3479"/><text fill="#000000" font-family="sans-serif" font-size="25" lengthAdjust="spacing" textLength="410.4167" x="2248.9583" y="1020.3868">System issues an access token</text><rect fill="#555555" height="12.5" rx="5.2083" ry="5.2083" style="stroke:#555555;stroke-width:2.0833333333333335;" width="1525" x="1691.6667" y="1201.2177"/><rect fill="#ADD8E6" height="70.7682" rx="26.0417" ry="26.0417" style="stroke:#0000FF;stroke-width:1.0416666666666667;" width="679.1667" x="1720.8333" y="1255.3843"/><text fill="#000000" font-family="sans-serif" font-size="25" lengthAdjust="spacing" textLength="637.5" x="1741.6667" y="1299.4232">System preloads patient data and clinical history</text><rect fill="#ADD8E6" height="70.7682" rx="26.0417" ry="26.0417" style="stroke:#0000FF;stroke-width:1.0416666666666667;" width="729.1667" x="2458.3333" y="1255.3843"/><text fill="#000000" font-family="sans-serif" font-size="25" lengthAdjust="spacing" textLength="687.5" x="2479.1667" y="1299.4232">System synchronizes patient tasks and active orders</text><rect fill="#555555" height="12.5" rx="5.2083" ry="5.2083" style="stroke:#555555;stroke-width:2.0833333333333335;" width="1525" x="1691.6667" y="1367.8192"/><polygon fill="#ADD8E6" points="1600,2061.6089,1875,2061.6089,1900,2086.6089,1875,2111.6089,1600,2111.6089,1575,2086.6089,1600,2061.6089" style="stroke:#0000FF;stroke-width:1.0416666666666667;"/><text fill="#000000" font-family="sans-serif" font-size="22.9167" lengthAdjust="spacing" textLength="275" x="1600" y="2094.5424">Is the device available?</text><text fill="#000000" font-family="sans-serif" font-size="22.9167" lengthAdjust="spacing" textLength="45.8333" x="1529.1667" y="2081.2042">YES</text><text fill="#000000" font-family="sans-serif" font-size="22.9167" lengthAdjust="spacing" textLength="35.4167" x="1900" y="2081.2042">NO</text><polygon fill="#ADD8E6" points="1737.5,2244.8771,1762.5,2269.8771,1737.5,2294.8771,1712.5,2269.8771,1737.5,2244.8771" style="stroke:#0000FF;stroke-width:1.0416666666666667;"/><polygon fill="#ADD8E6" points="2889.0625,1989.7664,3305.7292,1989.7664,3330.7292,2014.7664,3305.7292,2039.7664,2889.0625,2039.7664,2864.0625,2014.7664,2889.0625,1989.7664" style="stroke:#0000FF;stroke-width:1.0416666666666667;"/><text fill="#000000" font-family="sans-serif" font-size="22.9167" lengthAdjust="spacing" textLength="416.6667" x="2889.0625" y="2022.7">Is there an active treatment order?</text><text fill="#000000" font-family="sans-serif" font-size="22.9167" lengthAdjust="spacing" textLength="45.8333" x="2818.2292" y="2009.3618">YES</text><text fill="#000000" font-family="sans-serif" font-size="22.9167" lengthAdjust="spacing" textLength="35.4167" x="3330.7292" y="2009.3618">NO</text><polygon fill="#ADD8E6" points="3097.3958,2173.0347,3122.3958,2198.0347,3097.3958,2223.0347,3072.3958,2198.0347,3097.3958,2173.0347" style="stroke:#0000FF;stroke-width:1.0416666666666667;"/><rect fill="#ADD8E6" height="70.7682" rx="26.0417" ry="26.0417" style="stroke:#0000FF;stroke-width:1.0416666666666667;" width="627.0833" x="2140.625" y="2594.812"/><text fill="#000000" font-family="sans-serif" font-size="25" lengthAdjust="spacing" textLength="585.4167" x="2161.4583" y="2638.8509">System saves the note and updates the EHR</text><line style="stroke:#000000;stroke-width:3.125;" x1="1518.75" x2="1518.75" y1="104.2542" y2="3023.7834"/><ellipse cx="4597.3958" cy="179.1565" fill="#222222" rx="20.8333" ry="20.8333" style="stroke:#222222;stroke-width:2.0833333333333335;"/><rect fill="#ADD8E6" height="70.7682" rx="26.0417" ry="26.0417" style="stroke:#0000FF;stroke-width:1.0416666666666667;" width="591.6667" x="3414.0625" y="2153.2756"/><text fill="#000000" font-family="sans-serif" font-size="25" lengthAdjust="spacing" textLength="550" x="3434.8958" y="2197.3145">Nurse applies NMES according to protocol</text><rect fill="#ADD8E6" height="70.7682" rx="26.0417" ry="26.0417" style="stroke:#0000FF;stroke-width:1.0416666666666667;" width="529.1667" x="4026.5625" y="2153.2756"/><text fill="#000000" font-family="sans-serif" font-size="25" lengthAdjust="spacing" textLength="487.5" x="4047.3958" y="2197.3145">Nurse reschedules the NMES session</text><rect fill="#ADD8E6" height="70.7682" rx="26.0417" ry="26.0417" style="stroke:#0000FF;stroke-width:1.0416666666666667;" width="606.25" x="4592.1875" y="2081.4331"/><text fill="#000000" font-family="sans-serif" font-size="25" lengthAdjust="spacing" textLength="564.5833" x="4613.0208" y="2125.472">Nurse administers treatment as prescribed</text><rect fill="#ADD8E6" height="70.7682" rx="26.0417" ry="26.0417" style="stroke:#0000FF;stroke-width:1.0416666666666667;" width="691.6667" x="5219.2708" y="2081.4331"/><text fill="#000000" font-family="sans-serif" font-size="25" lengthAdjust="spacing" textLength="650" x="5240.1042" y="2125.472">Nurse requests clarification before administration</text><rect fill="#555555" height="12.5" rx="5.2083" ry="5.2083" style="stroke:#555555;stroke-width:2.0833333333333335;" width="2546.875" x="3389.0625" y="2428.2104"/><line style="stroke:#000000;stroke-width:3.125;" x1="3376.5625" x2="3376.5625" y1="104.2542" y2="3023.7834"/><line style="stroke:#000000;stroke-width:3.125;" x1="5944.2708" x2="5944.2708" y1="104.2542" y2="3023.7834"/><polygon fill="#181818" points="2719.7917,772.2463,2728.125,751.413,2736.4583,772.2463,2728.125,763.913" style="stroke:#181818;stroke-width:2.0833333333333335;"/><line style="stroke:#181818;stroke-width:2.0833333333333335;" x1="1055.2083" x2="1055.2083" y1="1608.8175" y2="1650.4842"/><polygon fill="#181818" points="1046.875,1629.6509,1055.2083,1650.4842,1063.5417,1629.6509,1055.2083,1637.9842" style="stroke:#181818;stroke-width:2.0833333333333335;"/><line style="stroke:#181818;stroke-width:2.0833333333333335;" x1="407.2917" x2="407.2917" y1="1867.0858" y2="1917.924"/><polygon fill="#181818" points="398.9583,1897.0907,407.2917,1917.924,415.625,1897.0907,407.2917,1905.424" style="stroke:#181818;stroke-width:2.0833333333333335;"/><line style="stroke:#181818;stroke-width:2.0833333333333335;" x1="270.8333" x2="125" y1="1842.0858" y2="1842.0858"/><polygon fill="#181818" points="116.6667,2085.5672,125,2106.4006,133.3333,2085.5672,125,2093.9006" style="stroke:#181818;stroke-width:2.0833333333333335;"/><line style="stroke:#181818;stroke-width:2.0833333333333335;" x1="125" x2="125" y1="1842.0858" y2="2361.5438"/><line style="stroke:#181818;stroke-width:2.0833333333333335;" x1="125" x2="382.2917" y1="2361.5438" y2="2361.5438"/><polygon fill="#181818" points="361.4583,2353.2104,382.2917,2361.5438,361.4583,2369.8771,369.7917,2361.5438" style="stroke:#181818;stroke-width:2.0833333333333335;"/><line style="stroke:#0000FF;stroke-width:2.0833333333333335;" x1="407.2917" x2="407.2917" y1="1775.4191" y2="1817.0858"/><polygon fill="#0000FF" points="398.9583,1796.2524,407.2917,1817.0858,415.625,1796.2524,407.2917,1804.5858" style="stroke:#0000FF;stroke-width:2.0833333333333335;"/><line style="stroke:#181818;stroke-width:2.0833333333333335;" x1="1055.2083" x2="1055.2083" y1="1721.2524" y2="1762.9191"/><polygon fill="#181818" points="1046.875,1742.0858,1055.2083,1762.9191,1063.5417,1742.0858,1055.2083,1750.4191" style="stroke:#181818;stroke-width:2.0833333333333335;"/><line style="stroke:#181818;stroke-width:2.0833333333333335;" x1="1055.2083" x2="1055.2083" y1="1471.9859" y2="1538.0493"/><polygon fill="#181818" points="1046.875,1517.216,1055.2083,1538.0493,1063.5417,1517.216,1055.2083,1525.5493" style="stroke:#181818;stroke-width:2.0833333333333335;"/><line style="stroke:#181818;stroke-width:2.0833333333333335;" x1="1055.2083" x2="1055.2083" y1="2778.0151" y2="2798.8485"/><line style="stroke:#181818;stroke-width:2.0833333333333335;" x1="1055.2083" x2="1479.1667" y1="2798.8485" y2="2798.8485"/><polygon fill="#181818" points="1470.8333,2160.7381,1479.1667,2139.9048,1487.5,2160.7381,1479.1667,2152.4048" style="stroke:#181818;stroke-width:2.0833333333333335;"/><line style="stroke:#181818;stroke-width:2.0833333333333335;" x1="1479.1667" x2="1479.1667" y1="1446.9859" y2="2798.8485"/><line style="stroke:#181818;stroke-width:2.0833333333333335;" x1="1479.1667" x2="1227.0833" y1="1446.9859" y2="1446.9859"/><polygon fill="#181818" points="1247.9167,1438.6525,1227.0833,1446.9859,1247.9167,1455.3192,1239.5833,1446.9859" style="stroke:#181818;stroke-width:2.0833333333333335;"/><line style="stroke:#181818;stroke-width:2.0833333333333335;" x1="883.3333" x2="70.8333" y1="1446.9859" y2="1446.9859"/><polygon fill="#181818" points="62.5,2131.5715,70.8333,2152.4048,79.1667,2131.5715,70.8333,2139.9048" style="stroke:#181818;stroke-width:2.0833333333333335;"/><line style="stroke:#181818;stroke-width:2.0833333333333335;" x1="70.8333" x2="70.8333" y1="1446.9859" y2="2823.8485"/><line style="stroke:#181818;stroke-width:2.0833333333333335;" x1="70.8333" x2="1055.2083" y1="2823.8485" y2="2823.8485"/><line style="stroke:#181818;stroke-width:2.0833333333333335;" x1="1055.2083" x2="1055.2083" y1="2823.8485" y2="2865.5151"/><polygon fill="#181818" points="1046.875,2844.6818,1055.2083,2865.5151,1063.5417,2844.6818,1055.2083,2853.0151" style="stroke:#181818;stroke-width:2.0833333333333335;"/><line style="stroke:#181818;stroke-width:2.0833333333333335;" x1="1055.2083" x2="1055.2083" y1="2936.2834" y2="2977.95"/><polygon fill="#181818" points="1046.875,2957.1167,1055.2083,2977.95,1063.5417,2957.1167,1055.2083,2965.45" style="stroke:#181818;stroke-width:2.0833333333333335;"/><line style="stroke:#181818;stroke-width:2.0833333333333335;" x1="2454.1667" x2="2454.1667" y1="628.9612" y2="695.0246"/><polygon fill="#181818" points="2445.8333,674.1913,2454.1667,695.0246,2462.5,674.1913,2454.1667,682.5246" style="stroke:#181818;stroke-width:2.0833333333333335;"/><line style="stroke:#181818;stroke-width:2.0833333333333335;" x1="2251.0417" x2="2180.2083" y1="603.9612" y2="603.9612"/><polygon fill="#181818" points="2171.875,755.5796,2180.2083,776.413,2188.5417,755.5796,2180.2083,763.913" style="stroke:#181818;stroke-width:2.0833333333333335;"/><line style="stroke:#181818;stroke-width:2.0833333333333335;" x1="2180.2083" x2="2180.2083" y1="603.9612" y2="934.6812"/><line style="stroke:#181818;stroke-width:2.0833333333333335;" x1="2180.2083" x2="2454.1667" y1="934.6812" y2="934.6812"/><line style="stroke:#181818;stroke-width:2.0833333333333335;" x1="2454.1667" x2="2454.1667" y1="934.6812" y2="976.3479"/><polygon fill="#181818" points="2445.8333,955.5145,2454.1667,976.3479,2462.5,955.5145,2454.1667,963.8479" style="stroke:#181818;stroke-width:2.0833333333333335;"/><line style="stroke:#181818;stroke-width:2.0833333333333335;" x1="2060.4167" x2="2060.4167" y1="1213.7177" y2="1255.3843"/><polygon fill="#181818" points="2052.0833,1234.551,2060.4167,1255.3843,2068.75,1234.551,2060.4167,1242.8843" style="stroke:#181818;stroke-width:2.0833333333333335;"/><line style="stroke:#181818;stroke-width:2.0833333333333335;" x1="2822.9167" x2="2822.9167" y1="1213.7177" y2="1255.3843"/><polygon fill="#181818" points="2814.5833,1234.551,2822.9167,1255.3843,2831.25,1234.551,2822.9167,1242.8843" style="stroke:#181818;stroke-width:2.0833333333333335;"/><line style="stroke:#181818;stroke-width:2.0833333333333335;" x1="2060.4167" x2="2060.4167" y1="1326.1525" y2="1367.8192"/><polygon fill="#181818" points="2052.0833,1346.9859,2060.4167,1367.8192,2068.75,1346.9859,2060.4167,1355.3192" style="stroke:#181818;stroke-width:2.0833333333333335;"/><line style="stroke:#181818;stroke-width:2.0833333333333335;" x1="2822.9167" x2="2822.9167" y1="1326.1525" y2="1367.8192"/><polygon fill="#181818" points="2814.5833,1346.9859,2822.9167,1367.8192,2831.25,1346.9859,2822.9167,1355.3192" style="stroke:#181818;stroke-width:2.0833333333333335;"/><line style="stroke:#181818;stroke-width:2.0833333333333335;" x1="4597.3958" x2="4597.3958" y1="199.9898" y2="210.4065"/><line style="stroke:#181818;stroke-width:2.0833333333333335;" x1="4597.3958" x2="1055.2083" y1="210.4065" y2="210.4065"/><line style="stroke:#181818;stroke-width:2.0833333333333335;" x1="1055.2083" x2="1055.2083" y1="210.4065" y2="241.6565"/><polygon fill="#181818" points="1046.875,220.8232,1055.2083,241.6565,1063.5417,220.8232,1055.2083,229.1565" style="stroke:#181818;stroke-width:2.0833333333333335;"/><line style="stroke:#181818;stroke-width:2.0833333333333335;" x1="1055.2083" x2="1055.2083" y1="312.4247" y2="322.8414"/><line style="stroke:#181818;stroke-width:2.0833333333333335;" x1="1055.2083" x2="2454.1667" y1="322.8414" y2="322.8414"/><line style="stroke:#181818;stroke-width:2.0833333333333335;" x1="2454.1667" x2="2454.1667" y1="322.8414" y2="354.0914"/><polygon fill="#181818" points="2445.8333,333.2581,2454.1667,354.0914,2462.5,333.2581,2454.1667,341.5914" style="stroke:#181818;stroke-width:2.0833333333333335;"/><line style="stroke:#181818;stroke-width:2.0833333333333335;" x1="2454.1667" x2="2454.1667" y1="424.8596" y2="435.2763"/><line style="stroke:#181818;stroke-width:2.0833333333333335;" x1="2454.1667" x2="1055.2083" y1="435.2763" y2="435.2763"/><line style="stroke:#181818;stroke-width:2.0833333333333335;" x1="1055.2083" x2="1055.2083" y1="435.2763" y2="466.5263"/><polygon fill="#181818" points="1046.875,445.693,1055.2083,466.5263,1063.5417,445.693,1055.2083,454.0263" style="stroke:#181818;stroke-width:2.0833333333333335;"/><line style="stroke:#181818;stroke-width:2.0833333333333335;" x1="2454.1667" x2="2454.1667" y1="765.7928" y2="786.8296"/><line style="stroke:#181818;stroke-width:2.0833333333333335;" x1="2454.1667" x2="1055.2083" y1="786.8296" y2="786.8296"/><line style="stroke:#181818;stroke-width:2.0833333333333335;" x1="1055.2083" x2="1055.2083" y1="786.8296" y2="818.0796"/><polygon fill="#181818" points="1046.875,797.2463,1055.2083,818.0796,1063.5417,797.2463,1055.2083,805.5796" style="stroke:#181818;stroke-width:2.0833333333333335;"/><line style="stroke:#181818;stroke-width:2.0833333333333335;" x1="1055.2083" x2="1055.2083" y1="888.8479" y2="909.6812"/><line style="stroke:#181818;stroke-width:2.0833333333333335;" x1="1055.2083" x2="2728.125" y1="909.6812" y2="909.6812"/><line style="stroke:#181818;stroke-width:2.0833333333333335;" x1="2728.125" x2="2728.125" y1="603.9612" y2="909.6812"/><line style="stroke:#181818;stroke-width:2.0833333333333335;" x1="2728.125" x2="2657.2917" y1="603.9612" y2="603.9612"/><polygon fill="#181818" points="2678.125,595.6278,2657.2917,603.9612,2678.125,612.2945,2669.7917,603.9612" style="stroke:#181818;stroke-width:2.0833333333333335;"/><line style="stroke:#181818;stroke-width:2.0833333333333335;" x1="1055.2083" x2="1055.2083" y1="537.2945" y2="547.7112"/><line style="stroke:#181818;stroke-width:2.0833333333333335;" x1="1055.2083" x2="2454.1667" y1="547.7112" y2="547.7112"/><line style="stroke:#181818;stroke-width:2.0833333333333335;" x1="2454.1667" x2="2454.1667" y1="547.7112" y2="578.9612"/><polygon fill="#181818" points="2445.8333,558.1278,2454.1667,578.9612,2462.5,558.1278,2454.1667,566.4612" style="stroke:#181818;stroke-width:2.0833333333333335;"/><line style="stroke:#181818;stroke-width:2.0833333333333335;" x1="2454.1667" x2="2454.1667" y1="1047.1161" y2="1057.5328"/><line style="stroke:#181818;stroke-width:2.0833333333333335;" x1="2454.1667" x2="1055.2083" y1="1057.5328" y2="1057.5328"/><line style="stroke:#181818;stroke-width:2.0833333333333335;" x1="1055.2083" x2="1055.2083" y1="1057.5328" y2="1088.7828"/><polygon fill="#181818" points="1046.875,1067.9494,1055.2083,1088.7828,1063.5417,1067.9494,1055.2083,1076.2828" style="stroke:#181818;stroke-width:2.0833333333333335;"/><line style="stroke:#181818;stroke-width:2.0833333333333335;" x1="1055.2083" x2="1055.2083" y1="1159.551" y2="1169.9677"/><line style="stroke:#181818;stroke-width:2.0833333333333335;" x1="1055.2083" x2="2454.1667" y1="1169.9677" y2="1169.9677"/><line style="stroke:#181818;stroke-width:2.0833333333333335;" x1="2454.1667" x2="2454.1667" y1="1169.9677" y2="1201.2177"/><polygon fill="#181818" points="2445.8333,1180.3843,2454.1667,1201.2177,2462.5,1180.3843,2454.1667,1188.7177" style="stroke:#181818;stroke-width:2.0833333333333335;"/><line style="stroke:#181818;stroke-width:2.0833333333333335;" x1="1575" x2="1550" y1="2086.6089" y2="2086.6089"/><line style="stroke:#181818;stroke-width:2.0833333333333335;" x1="1550" x2="1550" y1="2086.6089" y2="2124.1089"/><line style="stroke:#181818;stroke-width:2.0833333333333335;" x1="1550" x2="3709.8958" y1="2124.1089" y2="2124.1089"/><line style="stroke:#181818;stroke-width:2.0833333333333335;" x1="3709.8958" x2="3709.8958" y1="2124.1089" y2="2153.2756"/><polygon fill="#181818" points="3701.5625,2132.4422,3709.8958,2153.2756,3718.2292,2132.4422,3709.8958,2140.7756" style="stroke:#181818;stroke-width:2.0833333333333335;"/><line style="stroke:#181818;stroke-width:2.0833333333333335;" x1="1900" x2="4291.1458" y1="2086.6089" y2="2086.6089"/><line style="stroke:#181818;stroke-width:2.0833333333333335;" x1="4291.1458" x2="4291.1458" y1="2086.6089" y2="2153.2756"/><polygon fill="#181818" points="4282.8125,2132.4422,4291.1458,2153.2756,4299.4792,2132.4422,4291.1458,2140.7756" style="stroke:#181818;stroke-width:2.0833333333333335;"/><line style="stroke:#181818;stroke-width:2.0833333333333335;" x1="3709.8958" x2="3709.8958" y1="2224.0438" y2="2232.3771"/><line style="stroke:#181818;stroke-width:2.0833333333333335;" x1="3709.8958" x2="1675" y1="2232.3771" y2="2232.3771"/><line style="stroke:#181818;stroke-width:2.0833333333333335;" x1="1675" x2="1675" y1="2232.3771" y2="2269.8771"/><line style="stroke:#181818;stroke-width:2.0833333333333335;" x1="1675" x2="1712.5" y1="2269.8771" y2="2269.8771"/><polygon fill="#181818" points="1691.6667,2261.5438,1712.5,2269.8771,1691.6667,2278.2104,1700,2269.8771" style="stroke:#181818;stroke-width:2.0833333333333335;"/><line style="stroke:#181818;stroke-width:2.0833333333333335;" x1="4291.1458" x2="4291.1458" y1="2224.0438" y2="2269.8771"/><line style="stroke:#181818;stroke-width:2.0833333333333335;" x1="4291.1458" x2="1762.5" y1="2269.8771" y2="2269.8771"/><polygon fill="#181818" points="1783.3333,2261.5438,1762.5,2269.8771,1783.3333,2278.2104,1775,2269.8771" style="stroke:#181818;stroke-width:2.0833333333333335;"/><line style="stroke:#181818;stroke-width:2.0833333333333335;" x1="407.2917" x2="407.2917" y1="1988.6922" y2="2025.1506"/><line style="stroke:#181818;stroke-width:2.0833333333333335;" x1="407.2917" x2="1737.5" y1="2025.1506" y2="2025.1506"/><line style="stroke:#181818;stroke-width:2.0833333333333335;" x1="1737.5" x2="1737.5" y1="2025.1506" y2="2061.6089"/><polygon fill="#181818" points="1729.1667,2040.7756,1737.5,2061.6089,1745.8333,2040.7756,1737.5,2049.1089" style="stroke:#181818;stroke-width:2.0833333333333335;"/><line style="stroke:#181818;stroke-width:2.0833333333333335;" x1="1737.5" x2="1737.5" y1="2294.8771" y2="2311.1247"/><line style="stroke:#181818;stroke-width:2.0833333333333335;" x1="1737.5" x2="407.2917" y1="2311.1247" y2="2311.1247"/><line style="stroke:#181818;stroke-width:2.0833333333333335;" x1="407.2917" x2="407.2917" y1="2311.1247" y2="2336.5438"/><polygon fill="#181818" points="398.9583,2315.7104,407.2917,2336.5438,415.625,2315.7104,407.2917,2324.0438" style="stroke:#181818;stroke-width:2.0833333333333335;"/><line style="stroke:#181818;stroke-width:2.0833333333333335;" x1="2864.0625" x2="2839.0625" y1="2014.7664" y2="2014.7664"/><line style="stroke:#181818;stroke-width:2.0833333333333335;" x1="2839.0625" x2="2839.0625" y1="2014.7664" y2="2052.2664"/><line style="stroke:#181818;stroke-width:2.0833333333333335;" x1="2839.0625" x2="4895.3125" y1="2052.2664" y2="2052.2664"/><line style="stroke:#181818;stroke-width:2.0833333333333335;" x1="4895.3125" x2="4895.3125" y1="2052.2664" y2="2081.4331"/><polygon fill="#181818" points="4886.9792,2060.5998,4895.3125,2081.4331,4903.6458,2060.5998,4895.3125,2068.9331" style="stroke:#181818;stroke-width:2.0833333333333335;"/><line style="stroke:#181818;stroke-width:2.0833333333333335;" x1="3330.7292" x2="5565.1042" y1="2014.7664" y2="2014.7664"/><line style="stroke:#181818;stroke-width:2.0833333333333335;" x1="5565.1042" x2="5565.1042" y1="2014.7664" y2="2081.4331"/><polygon fill="#181818" points="5556.7708,2060.5998,5565.1042,2081.4331,5573.4375,2060.5998,5565.1042,2068.9331" style="stroke:#181818;stroke-width:2.0833333333333335;"/><line style="stroke:#181818;stroke-width:2.0833333333333335;" x1="4895.3125" x2="4895.3125" y1="2152.2013" y2="2160.5347"/><line style="stroke:#181818;stroke-width:2.0833333333333335;" x1="4895.3125" x2="3034.8958" y1="2160.5347" y2="2160.5347"/><line style="stroke:#181818;stroke-width:2.0833333333333335;" x1="3034.8958" x2="3034.8958" y1="2160.5347" y2="2198.0347"/><line style="stroke:#181818;stroke-width:2.0833333333333335;" x1="3034.8958" x2="3072.3958" y1="2198.0347" y2="2198.0347"/><polygon fill="#181818" points="3051.5625,2189.7013,3072.3958,2198.0347,3051.5625,2206.368,3059.8958,2198.0347" style="stroke:#181818;stroke-width:2.0833333333333335;"/><line style="stroke:#181818;stroke-width:2.0833333333333335;" x1="5565.1042" x2="5565.1042" y1="2152.2013" y2="2198.0347"/><line style="stroke:#181818;stroke-width:2.0833333333333335;" x1="5565.1042" x2="3122.3958" y1="2198.0347" y2="2198.0347"/><polygon fill="#181818" points="3143.2292,2189.7013,3122.3958,2198.0347,3143.2292,2206.368,3134.8958,2198.0347" style="stroke:#181818;stroke-width:2.0833333333333335;"/><line style="stroke:#0000FF;stroke-width:2.0833333333333335;" x1="1439.5833" x2="1439.5833" y1="1775.4191" y2="1783.7524"/><line style="stroke:#0000FF;stroke-width:2.0833333333333335;" x1="1439.5833" x2="3097.3958" y1="1783.7524" y2="1783.7524"/><line style="stroke:#0000FF;stroke-width:2.0833333333333335;" x1="3097.3958" x2="3097.3958" y1="1783.7524" y2="1989.7664"/><polygon fill="#0000FF" points="3089.0625,1968.9331,3097.3958,1989.7664,3105.7292,1968.9331,3097.3958,1977.2664" style="stroke:#0000FF;stroke-width:2.0833333333333335;"/><line style="stroke:#181818;stroke-width:2.0833333333333335;" x1="407.2917" x2="407.2917" y1="2386.5438" y2="2399.0438"/><line style="stroke:#181818;stroke-width:2.0833333333333335;" x1="407.2917" x2="4010.9375" y1="2399.0438" y2="2399.0438"/><line style="stroke:#181818;stroke-width:2.0833333333333335;" x1="4010.9375" x2="4010.9375" y1="2399.0438" y2="2428.2104"/><polygon fill="#181818" points="4002.6042,2407.3771,4010.9375,2428.2104,4019.2708,2407.3771,4010.9375,2415.7104" style="stroke:#181818;stroke-width:2.0833333333333335;"/><line style="stroke:#181818;stroke-width:2.0833333333333335;" x1="3097.3958" x2="3097.3958" y1="2223.0347" y2="2399.0438"/><line style="stroke:#181818;stroke-width:2.0833333333333335;" x1="3097.3958" x2="5219.7917" y1="2399.0438" y2="2399.0438"/><line style="stroke:#181818;stroke-width:2.0833333333333335;" x1="5219.7917" x2="5219.7917" y1="2399.0438" y2="2428.2104"/><polygon fill="#181818" points="5211.4583,2407.3771,5219.7917,2428.2104,5228.125,2407.3771,5219.7917,2415.7104" style="stroke:#181818;stroke-width:2.0833333333333335;"/><line style="stroke:#181818;stroke-width:2.0833333333333335;" x1="4597.3958" x2="4597.3958" y1="2440.7104" y2="2451.1271"/><line style="stroke:#181818;stroke-width:2.0833333333333335;" x1="4597.3958" x2="1055.2083" y1="2451.1271" y2="2451.1271"/><line style="stroke:#181818;stroke-width:2.0833333333333335;" x1="1055.2083" x2="1055.2083" y1="2451.1271" y2="2482.3771"/><polygon fill="#181818" points="1046.875,2461.5438,1055.2083,2482.3771,1063.5417,2461.5438,1055.2083,2469.8771" style="stroke:#181818;stroke-width:2.0833333333333335;"/><line style="stroke:#181818;stroke-width:2.0833333333333335;" x1="1055.2083" x2="1055.2083" y1="2553.1453" y2="2563.562"/><line style="stroke:#181818;stroke-width:2.0833333333333335;" x1="1055.2083" x2="2454.1667" y1="2563.562" y2="2563.562"/><line style="stroke:#181818;stroke-width:2.0833333333333335;" x1="2454.1667" x2="2454.1667" y1="2563.562" y2="2594.812"/><polygon fill="#181818" points="2445.8333,2573.9787,2454.1667,2594.812,2462.5,2573.9787,2454.1667,2582.312" style="stroke:#181818;stroke-width:2.0833333333333335;"/><line style="stroke:#181818;stroke-width:2.0833333333333335;" x1="2454.1667" x2="2454.1667" y1="2665.5802" y2="2675.9969"/><line style="stroke:#181818;stroke-width:2.0833333333333335;" x1="2454.1667" x2="1055.2083" y1="2675.9969" y2="2675.9969"/><line style="stroke:#181818;stroke-width:2.0833333333333335;" x1="1055.2083" x2="1055.2083" y1="2675.9969" y2="2707.2469"/><polygon fill="#181818" points="1046.875,2686.4136,1055.2083,2707.2469,1063.5417,2686.4136,1055.2083,2694.7469" style="stroke:#181818;stroke-width:2.0833333333333335;"/><line style="stroke:#181818;stroke-width:2.0833333333333335;" x1="2454.1667" x2="2454.1667" y1="1380.3192" y2="1390.7359"/><line style="stroke:#181818;stroke-width:2.0833333333333335;" x1="2454.1667" x2="1055.2083" y1="1390.7359" y2="1390.7359"/><line style="stroke:#181818;stroke-width:2.0833333333333335;" x1="1055.2083" x2="1055.2083" y1="1390.7359" y2="1421.9859"/><polygon fill="#181818" points="1046.875,1401.1525,1055.2083,1421.9859,1063.5417,1401.1525,1055.2083,1409.4859" style="stroke:#181818;stroke-width:2.0833333333333335;"/><text fill="#000000" font-family="sans-serif" font-size="37.5" lengthAdjust="spacing" textLength="125" x="712.5" y="139.0625">Doctor</text><text fill="#000000" font-family="sans-serif" font-size="37.5" lengthAdjust="spacing" textLength="135.4167" x="2379.9479" y="139.0625">System</text><text fill="#000000" font-family="sans-serif" font-size="37.5" lengthAdjust="spacing" textLength="108.3333" x="4606.25" y="139.0625">Nurse</text><!--SRC=[VLKzSzim3DtrAx0b6NoNwsWFlQRrNJeapJLTEj8YRE5Caof1sLNg_lU27_fewZHB90fuU7Xue7bFjbLU7K2t1EzkRoiUJrGTw4YXXryLm9sgzpllEgi_EkCy6DerOMCwZD-Sr-ZpUJhwNLM1Wa6uTznIK0QUd8__5l3Kz4mkDEXLInpav0uraqOu4bEegYjOSr0RGznC33IfNQ9aDV293aPPvEhyoTN1-NDrVkuvu44U7ZlFUAugWV02DaOiymEu5Ys3b8U3sv0mL6rhg5Q1d5rL4z0oFqXXRetgSufnExB0jKTCmQ_1qGRqELHYjBoICZo7FJMnvdK1Fof3MWNaUVZx6o26wySlDwBiG8CRTs9GdK1BLAOBwBtpAuaQYKX2eU9nyHORYH_eeDM5qVVryqqrTatCdR1ILYPG8mk8srzkcT5W7KgLpdkf8cHf6zAeMY4QJsIOOIx3rldzhBlMet5AynWlegW4K1koqgw1HX2SxrSf5THEaPtBqzkwySxI2quWGV6U4qgo4K9ogGWWNKDYCBLJL7Xm7eTy1fbrchgKBaD9Air5FXAUBj0MonIN9LElPZd9cFdRPcvyaGUWw09m1Ok5R8PNqXTyMCBZm_ev7gMFit43q1QkFtCE8AkZDr0BtUYKaN3y6mY8sE9WskJvfZoM4IV_vyXnJFcrL8YCjJHSoyuS5HbPKRnKH_BB4Wxlo_IUDmqBLV6LZ8FiJgmbb5nmjJC30JGINZRWlv2nbGPrPp3pkzIDJ9ksrVHKP1uzz4hikoLyywZ28GvqL7okoAI7c2MjI79N6BEIpov9ytSNWopw81xdlAiZXk9fK3gtybgLYsWUVyZcYi5gepnjXwjYWzjexQ6MB_VTN9zfAovUADDTDTeQh0kOhsJQYT_JLH2tK1RMzCdGC-76NLN70ZAcT-s4lBx_kdg3WjYaHjcPQ9cKZp_3i7khsLqM9VhtfjgIbHPUIXaj3kuX_Pwjug-5Qwi_]--></g></svg>