<svg xmlns="http://www.w3.org/2000/svg" xmlns:xlink="http://www.w3.org/1999/xlink" contentStyleType="text/css" data-diagram-type="ACTIVITY" height="3147.9167px" preserveAspectRatio="none" style="width:5470px;height:3147px;background:#FFFFFF;" version="1.1" viewBox="0 0 5470 3147" width="5470.8333px" zoomAndPan="magnify"><title>Hospital Portal - Physiotherapist - Bedside visit</title><defs/><g><g class="title" data-source-line="8"><text fill="#000000" font-family="sans-serif" font-size="29.1667" font-weight="bold" lengthAdjust="spacing" textLength="680.3392" x="2392.7888" y="72.8457">Hospital Portal - Physiotherapist - Bedside visit</text></g><rect fill="none" height="51.0747" style="stroke:none;stroke-width:2.0833;" width="5403.4167" x="31.25" y="112.1706"/><rect fill="#ADD8E6" height="75.7169" rx="26.0417" ry="26.0417" style="stroke:#0000FF;stroke-width:1.0417;" width="468.7447" x="731.3704" y="256.9953"/><text fill="#000000" font-family="sans-serif" font-size="25" lengthAdjust="spacing" textLength="427.0781" x="752.2038" y="304.5538">Doctor opens the mobile application</text><rect fill="#ADD8E6" height="75.7169" rx="26.0417" ry="26.0417" style="stroke:#0000FF;stroke-width:1.0417;" width="383.8442" x="773.8207" y="491.7624"/><text fill="#000000" font-family="sans-serif" font-size="25" lengthAdjust="spacing" textLength="342.1775" x="794.6541" y="539.3209">Doctor enters the credentials</text><rect fill="#ADD8E6" height="75.7169" rx="26.0417" ry="26.0417" style="stroke:#0000FF;stroke-width:1.0417;" width="416.3194" x="757.5831" y="854.1712"/><text fill="#000000" font-family="sans-serif" font-size="25" lengthAdjust="spacing" textLength="374.6527" x="778.4164" y="901.7297">Doctor re-enters the credentials</text><rect fill="#ADD8E6" height="75.7169" rx="26.0417" ry="26.0417" style="stroke:#0000FF;stroke-width:1.0417;" width="585.5956" x="672.945" y="1134.7716"/><text fill="#000000" font-family="sans-serif" font-size="25" lengthAdjust="spacing" textLength="543.9289" x="693.7784" y="1182.3302">Doctor selects the current shift and patient list</text><rect fill="#ADD8E6" height="75.7169" rx="26.0417" ry="26.0417" style="stroke:#0000FF;stroke-width:1.0417;" width="585.5206" x="672.9825" y="1597.1615"/><text fill="#000000" font-family="sans-serif" font-size="25" lengthAdjust="spacing" textLength="543.8539" x="693.8159" y="1644.72">Doctor reviews patient data and plans the visit</text><rect fill="#ADD8E6" height="75.7169" rx="26.0417" ry="26.0417" style="stroke:#0000FF;stroke-width:1.0417;" width="391.7942" x="769.8457" y="1714.5451"/><text fill="#000000" font-family="sans-serif" font-size="25" lengthAdjust="spacing" textLength="350.1276" x="790.679" y="1762.1036">Doctor starts the bedside visit</text><rect fill="#555555" height="12.5" rx="5.2083" ry="5.2083" style="stroke:#555555;stroke-width:2.0833;" width="1230.3076" x="95.8333" y="1831.9287"/><rect fill="#ADD8E6" height="75.7169" rx="26.0417" ry="26.0417" style="stroke:#0000FF;stroke-width:1.0417;" width="455.3447" x="154.1667" y="1989.2015"/><text fill="#000000" font-family="sans-serif" font-size="25" lengthAdjust="spacing" textLength="413.678" x="175" y="2036.76">Doctor prescribes an NMES session</text><polygon fill="#ADD8E6" points="280.1585,1886.0953,483.5196,1886.0953,508.5196,1911.0953,483.5196,1936.0953,280.1585,1936.0953,255.1585,1911.0953,280.1585,1886.0953" style="stroke:#0000FF;stroke-width:1.0417;"/><text fill="#000000" font-family="sans-serif" font-size="22.9167" lengthAdjust="spacing" textLength="38.2935" x="390.1724" y="1960.5931">YES</text><text fill="#000000" font-family="sans-serif" font-size="22.9167" lengthAdjust="spacing" textLength="203.3611" x="280.1585" y="1919.9869">Is NMES indicated?</text><polygon fill="#ADD8E6" points="381.839,2417.7186,406.839,2442.7186,381.839,2467.7186,356.839,2442.7186,381.839,2417.7186" style="stroke:#0000FF;stroke-width:1.0417;"/><rect fill="#ADD8E6" height="75.7169" rx="26.0417" ry="26.0417" style="stroke:#0000FF;stroke-width:1.0417;" width="670.7962" x="630.3447" y="2563.5519"/><text fill="#000000" font-family="sans-serif" font-size="25" lengthAdjust="spacing" textLength="629.1295" x="651.178" y="2611.1104">Doctor validates the visit note and signs electronically</text><rect fill="#ADD8E6" height="75.7169" rx="26.0417" ry="26.0417" style="stroke:#0000FF;stroke-width:1.0417;" width="460.3697" x="735.558" y="2798.3191"/><text fill="#000000" font-family="sans-serif" font-size="25" lengthAdjust="spacing" textLength="418.703" x="756.3913" y="2845.8776">Doctor proceeds to the next patient</text><polygon fill="#ADD8E6" points="833.3427,1477.8721,1098.1429,1477.8721,1123.1429,1502.8721,1098.1429,1527.8721,833.3427,1527.8721,808.3427,1502.8721,833.3427,1477.8721" style="stroke:#0000FF;stroke-width:1.0417;"/><text fill="#000000" font-family="sans-serif" font-size="22.9167" lengthAdjust="spacing" textLength="38.2935" x="974.0761" y="1552.3698">YES</text><text fill="#000000" font-family="sans-serif" font-size="22.9167" lengthAdjust="spacing" textLength="264.8003" x="833.3427" y="1511.7637">More patients in the list?</text><text fill="#000000" font-family="sans-serif" font-size="22.9167" lengthAdjust="spacing" textLength="35.3143" x="773.0283" y="1496.1576">NO</text><rect fill="#ADD8E6" height="75.7169" rx="26.0417" ry="26.0417" style="stroke:#0000FF;stroke-width:1.0417;" width="408.1193" x="761.6832" y="2961.536"/><text fill="#000000" font-family="sans-serif" font-size="25" lengthAdjust="spacing" textLength="366.4526" x="782.5165" y="3009.0945">Doctor finalizes the daily round</text><ellipse cx="965.7428" cy="3101.8362" fill="none" rx="22.9167" ry="22.9167" style="stroke:#222222;stroke-width:2.0833;"/><ellipse cx="965.7428" cy="3101.8362" fill="#222222" rx="12.5" ry="12.5" style="stroke:#222222;stroke-width:2.0833;"/><line style="stroke:#000000;stroke-width:3.125;" x1="31.25" x2="31.25" y1="112.1706" y2="3124.7529"/><rect fill="#ADD8E6" height="75.7169" rx="26.0417" ry="26.0417" style="stroke:#0000FF;stroke-width:1.0417;" width="422.3694" x="2030.8735" y="374.3788"/><text fill="#000000" font-family="sans-serif" font-size="25" lengthAdjust="spacing" textLength="380.7027" x="2051.7068" y="421.9374">System displays the login screen</text><rect fill="#ADD8E6" height="75.7169" rx="26.0417" ry="26.0417" style="stroke:#0000FF;stroke-width:1.0417;" width="451.5446" x="2016.2859" y="728.4354"/><text fill="#000000" font-family="sans-serif" font-size="25" lengthAdjust="spacing" textLength="409.8779" x="2037.1192" y="775.9939">System shows authentication error</text><polygon fill="#ADD8E6" points="2085.2176,609.146,2398.8988,609.146,2423.8988,634.146,2398.8988,659.146,2085.2176,659.146,2060.2176,634.146,2085.2176,609.146" style="stroke:#0000FF;stroke-width:1.0417;"/><text fill="#000000" font-family="sans-serif" font-size="22.9167" lengthAdjust="spacing" textLength="35.3143" x="2250.3915" y="683.6437">NO</text><text fill="#000000" font-family="sans-serif" font-size="22.9167" lengthAdjust="spacing" textLength="313.6812" x="2085.2176" y="643.0376">System validates credentials?</text><text fill="#000000" font-family="sans-serif" font-size="22.9167" lengthAdjust="spacing" textLength="38.2935" x="2021.9242" y="627.4315">YES</text><rect fill="#ADD8E6" height="75.7169" rx="26.0417" ry="26.0417" style="stroke:#0000FF;stroke-width:1.0417;" width="397.1443" x="2043.4861" y="1017.3881"/><text fill="#000000" font-family="sans-serif" font-size="25" lengthAdjust="spacing" textLength="355.4776" x="2064.3194" y="1064.9466">System issues an access token</text><rect fill="#555555" height="12.5" rx="5.2083" ry="5.2083" style="stroke:#555555;stroke-width:2.0833;" width="1378.7585" x="1552.6789" y="1252.1552"/><rect fill="#ADD8E6" height="75.7169" rx="26.0417" ry="26.0417" style="stroke:#0000FF;stroke-width:1.0417;" width="609.4957" x="1581.8456" y="1306.3219"/><text fill="#000000" font-family="sans-serif" font-size="25" lengthAdjust="spacing" textLength="567.829" x="1602.6789" y="1353.8804">System preloads patient data and clinical history</text><rect fill="#ADD8E6" height="75.7169" rx="26.0417" ry="26.0417" style="stroke:#0000FF;stroke-width:1.0417;" width="652.5962" x="2249.6746" y="1306.3219"/><text fill="#000000" font-family="sans-serif" font-size="25" lengthAdjust="spacing" textLength="610.9295" x="2270.5079" y="1353.8804">System synchronizes patient tasks and active orders</text><rect fill="#555555" height="12.5" rx="5.2083" ry="5.2083" style="stroke:#555555;stroke-width:2.0833;" width="1378.7585" x="1552.6789" y="1423.7054"/><polygon fill="#ADD8E6" points="1464.4344,2137.835,1709.8243,2137.835,1734.8243,2162.835,1709.8243,2187.835,1464.4344,2187.835,1439.4344,2162.835,1464.4344,2137.835" style="stroke:#0000FF;stroke-width:1.0417;"/><text fill="#000000" font-family="sans-serif" font-size="22.9167" lengthAdjust="spacing" textLength="245.3899" x="1464.4344" y="2171.7266">Is the device available?</text><text fill="#000000" font-family="sans-serif" font-size="22.9167" lengthAdjust="spacing" textLength="38.2935" x="1401.1409" y="2156.1205">YES</text><text fill="#000000" font-family="sans-serif" font-size="22.9167" lengthAdjust="spacing" textLength="35.3143" x="1734.8243" y="2156.1205">NO</text><polygon fill="#ADD8E6" points="1587.1293,2326.0519,1612.1293,2351.0519,1587.1293,2376.0519,1562.1293,2351.0519,1587.1293,2326.0519" style="stroke:#0000FF;stroke-width:1.0417;"/><polygon fill="#ADD8E6" points="2644.8013,2063.5182,3019.0508,2063.5182,3044.0508,2088.5182,3019.0508,2113.5182,2644.8013,2113.5182,2619.8013,2088.5182,2644.8013,2063.5182" style="stroke:#0000FF;stroke-width:1.0417;"/><text fill="#000000" font-family="sans-serif" font-size="22.9167" lengthAdjust="spacing" textLength="374.2495" x="2644.8013" y="2097.4098">Is there an active treatment order?</text><text fill="#000000" font-family="sans-serif" font-size="22.9167" lengthAdjust="spacing" textLength="38.2935" x="2581.5078" y="2081.8037">YES</text><text fill="#000000" font-family="sans-serif" font-size="22.9167" lengthAdjust="spacing" textLength="35.3143" x="3044.0508" y="2081.8037">NO</text><polygon fill="#ADD8E6" points="2831.926,2251.7351,2856.926,2276.7351,2831.926,2301.7351,2806.926,2276.7351,2831.926,2251.7351" style="stroke:#0000FF;stroke-width:1.0417;"/><rect fill="#ADD8E6" height="75.7169" rx="26.0417" ry="26.0417" style="stroke:#0000FF;stroke-width:1.0417;" width="555.8953" x="1964.1105" y="2680.9355"/><text fill="#000000" font-family="sans-serif" font-size="25" lengthAdjust="spacing" textLength="514.2286" x="1984.9439" y="2728.494">System saves the note and updates the EHR</text><line style="stroke:#000000;stroke-width:3.125;" x1="1390.7242" x2="1390.7242" y1="112.1706" y2="3124.7529"/><ellipse cx="4201.4219" cy="194.4953" fill="#222222" rx="20.8333" ry="20.8333" style="stroke:#222222;stroke-width:2.0833;"/><rect fill="#ADD8E6" height="75.7169" rx="26.0417" ry="26.0417" style="stroke:#0000FF;stroke-width:1.0417;" width="536.8953" x="3127.2818" y="2229.5017"/><text fill="#000000" font-family="sans-serif" font-size="25" lengthAdjust="spacing" textLength="495.2286" x="3148.1151" y="2277.0602">Nurse applies NMES according to protocol</text><rect fill="#ADD8E6" height="75.7169" rx="26.0417" ry="26.0417" style="stroke:#0000FF;stroke-width:1.0417;" width="474.7449" x="3685.0104" y="2229.5017"/><text fill="#000000" font-family="sans-serif" font-size="25" lengthAdjust="spacing" textLength="433.0782" x="3705.8437" y="2277.0602">Nurse reschedules the NMES session</text><rect fill="#ADD8E6" height="75.7169" rx="26.0417" ry="26.0417" style="stroke:#0000FF;stroke-width:1.0417;" width="546.8953" x="4203.4422" y="2155.1849"/><text fill="#000000" font-family="sans-serif" font-size="25" lengthAdjust="spacing" textLength="505.2287" x="4224.2755" y="2202.7434">Nurse administers treatment as prescribed</text><rect fill="#ADD8E6" height="75.7169" rx="26.0417" ry="26.0417" style="stroke:#0000FF;stroke-width:1.0417;" width="627.3709" x="4771.1709" y="2155.1849"/><text fill="#000000" font-family="sans-serif" font-size="25" lengthAdjust="spacing" textLength="585.7042" x="4792.0042" y="2202.7434">Nurse requests clarification before administration</text><rect fill="#555555" height="12.5" rx="5.2083" ry="5.2083" style="stroke:#555555;stroke-width:2.0833;" width="2321.26" x="3102.2818" y="2509.3853"/><line style="stroke:#000000;stroke-width:3.125;" x1="3089.7818" x2="3089.7818" y1="112.1706" y2="3124.7529"/><line style="stroke:#000000;stroke-width:3.125;" x1="5431.8751" x2="5431.8751" y1="112.1706" y2="3124.7529"/><polygon fill="#181818" points="2484.4972,808.3378,2492.8305,787.5045,2501.1638,808.3378,2492.8305,800.0045" style="stroke:#181818;stroke-width:2.0833;"/><line style="stroke:#181818;stroke-width:2.0833;" x1="965.7428" x2="965.7428" y1="1672.8784" y2="1714.5451"/><polygon fill="#181818" points="957.4095,1693.7117,965.7428,1714.5451,974.0761,1693.7117,965.7428,1702.0451" style="stroke:#181818;stroke-width:2.0833;"/><line style="stroke:#181818;stroke-width:2.0833;" x1="381.839" x2="381.839" y1="1936.0953" y2="1989.2015"/><polygon fill="#181818" points="373.5057,1968.3681,381.839,1989.2015,390.1724,1968.3681,381.839,1976.7015" style="stroke:#181818;stroke-width:2.0833;"/><line style="stroke:#181818;stroke-width:2.0833;" x1="255.1585" x2="125" y1="1911.0953" y2="1911.0953"/><polygon fill="#181818" points="116.6667,2161.7934,125,2182.6267,133.3333,2161.7934,125,2170.1267" style="stroke:#181818;stroke-width:2.0833;"/><line style="stroke:#181818;stroke-width:2.0833;" x1="125" x2="125" y1="1911.0953" y2="2442.7186"/><line style="stroke:#181818;stroke-width:2.0833;" x1="125" x2="356.839" y1="2442.7186" y2="2442.7186"/><polygon fill="#181818" points="336.0057,2434.3853,356.839,2442.7186,336.0057,2451.0519,344.339,2442.7186" style="stroke:#181818;stroke-width:2.0833;"/><line style="stroke:#181818;stroke-width:2.0833;" x1="381.839" x2="381.839" y1="1844.4287" y2="1886.0953"/><polygon fill="#181818" points="373.5057,1865.262,381.839,1886.0953,390.1724,1865.262,381.839,1873.5953" style="stroke:#181818;stroke-width:2.0833;"/><line style="stroke:#181818;stroke-width:2.0833;" x1="965.7428" x2="965.7428" y1="1790.262" y2="1831.9287"/><polygon fill="#181818" points="957.4095,1811.0953,965.7428,1831.9287,974.0761,1811.0953,965.7428,1819.4287" style="stroke:#181818;stroke-width:2.0833;"/><line style="stroke:#181818;stroke-width:2.0833;" x1="965.7428" x2="965.7428" y1="1527.8721" y2="1597.1615"/><polygon fill="#181818" points="957.4095,1576.3282,965.7428,1597.1615,974.0761,1576.3282,965.7428,1584.6615" style="stroke:#181818;stroke-width:2.0833;"/><line style="stroke:#181818;stroke-width:2.0833;" x1="965.7428" x2="965.7428" y1="2874.036" y2="2894.8693"/><line style="stroke:#181818;stroke-width:2.0833;" x1="965.7428" x2="1351.1409" y1="2894.8693" y2="2894.8693"/><polygon fill="#181818" points="1342.8076,2237.1707,1351.1409,2216.3373,1359.4742,2237.1707,1351.1409,2228.8373" style="stroke:#181818;stroke-width:2.0833;"/><line style="stroke:#181818;stroke-width:2.0833;" x1="1351.1409" x2="1351.1409" y1="1502.8721" y2="2894.8693"/><line style="stroke:#181818;stroke-width:2.0833;" x1="1351.1409" x2="1123.1429" y1="1502.8721" y2="1502.8721"/><polygon fill="#181818" points="1143.9763,1494.5388,1123.1429,1502.8721,1143.9763,1511.2054,1135.6429,1502.8721" style="stroke:#181818;stroke-width:2.0833;"/><line style="stroke:#181818;stroke-width:2.0833;" x1="808.3427" x2="70.8333" y1="1502.8721" y2="1502.8721"/><polygon fill="#181818" points="62.5,2208.004,70.8333,2228.8373,79.1667,2208.004,70.8333,2216.3373" style="stroke:#181818;stroke-width:2.0833;"/><line style="stroke:#181818;stroke-width:2.0833;" x1="70.8333" x2="70.8333" y1="1502.8721" y2="2919.8693"/><line style="stroke:#181818;stroke-width:2.0833;" x1="70.8333" x2="965.7428" y1="2919.8693" y2="2919.8693"/><line style="stroke:#181818;stroke-width:2.0833;" x1="965.7428" x2="965.7428" y1="2919.8693" y2="2961.536"/><polygon fill="#181818" points="957.4095,2940.7026,965.7428,2961.536,974.0761,2940.7026,965.7428,2949.036" style="stroke:#181818;stroke-width:2.0833;"/><line style="stroke:#181818;stroke-width:2.0833;" x1="965.7428" x2="965.7428" y1="3037.2529" y2="3078.9195"/><polygon fill="#181818" points="957.4095,3058.0862,965.7428,3078.9195,974.0761,3058.0862,965.7428,3066.4195" style="stroke:#181818;stroke-width:2.0833;"/><line style="stroke:#181818;stroke-width:2.0833;" x1="2242.0582" x2="2242.0582" y1="659.146" y2="728.4354"/><polygon fill="#181818" points="2233.7249,707.6021,2242.0582,728.4354,2250.3915,707.6021,2242.0582,715.9354" style="stroke:#181818;stroke-width:2.0833;"/><line style="stroke:#181818;stroke-width:2.0833;" x1="2060.2176" x2="1991.2859" y1="634.146" y2="634.146"/><polygon fill="#181818" points="1982.9526,791.6712,1991.2859,812.5045,1999.6192,791.6712,1991.2859,800.0045" style="stroke:#181818;stroke-width:2.0833;"/><line style="stroke:#181818;stroke-width:2.0833;" x1="1991.2859" x2="1991.2859" y1="634.146" y2="975.7214"/><line style="stroke:#181818;stroke-width:2.0833;" x1="1991.2859" x2="2242.0582" y1="975.7214" y2="975.7214"/><line style="stroke:#181818;stroke-width:2.0833;" x1="2242.0582" x2="2242.0582" y1="975.7214" y2="1017.3881"/><polygon fill="#181818" points="2233.7249,996.5547,2242.0582,1017.3881,2250.3915,996.5547,2242.0582,1004.8881" style="stroke:#181818;stroke-width:2.0833;"/><line style="stroke:#181818;stroke-width:2.0833;" x1="1886.5934" x2="1886.5934" y1="1264.6552" y2="1306.3219"/><polygon fill="#181818" points="1878.2601,1285.4885,1886.5934,1306.3219,1894.9268,1285.4885,1886.5934,1293.8219" style="stroke:#181818;stroke-width:2.0833;"/><line style="stroke:#181818;stroke-width:2.0833;" x1="2575.9727" x2="2575.9727" y1="1264.6552" y2="1306.3219"/><polygon fill="#181818" points="2567.6394,1285.4885,2575.9727,1306.3219,2584.306,1285.4885,2575.9727,1293.8219" style="stroke:#181818;stroke-width:2.0833;"/><line style="stroke:#181818;stroke-width:2.0833;" x1="1886.5934" x2="1886.5934" y1="1382.0388" y2="1423.7054"/><polygon fill="#181818" points="1878.2601,1402.8721,1886.5934,1423.7054,1894.9268,1402.8721,1886.5934,1411.2054" style="stroke:#181818;stroke-width:2.0833;"/><line style="stroke:#181818;stroke-width:2.0833;" x1="2575.9727" x2="2575.9727" y1="1382.0388" y2="1423.7054"/><polygon fill="#181818" points="2567.6394,1402.8721,2575.9727,1423.7054,2584.306,1402.8721,2575.9727,1411.2054" style="stroke:#181818;stroke-width:2.0833;"/><line style="stroke:#181818;stroke-width:2.0833;" x1="4201.4219" x2="4201.4219" y1="215.3286" y2="225.7453"/><line style="stroke:#181818;stroke-width:2.0833;" x1="4201.4219" x2="965.7428" y1="225.7453" y2="225.7453"/><line style="stroke:#181818;stroke-width:2.0833;" x1="965.7428" x2="965.7428" y1="225.7453" y2="256.9953"/><polygon fill="#181818" points="957.4095,236.1619,965.7428,256.9953,974.0761,236.1619,965.7428,244.4953" style="stroke:#181818;stroke-width:2.0833;"/><line style="stroke:#181818;stroke-width:2.0833;" x1="965.7428" x2="965.7428" y1="332.7122" y2="343.1288"/><line style="stroke:#181818;stroke-width:2.0833;" x1="965.7428" x2="2242.0582" y1="343.1288" y2="343.1288"/><line style="stroke:#181818;stroke-width:2.0833;" x1="2242.0582" x2="2242.0582" y1="343.1288" y2="374.3788"/><polygon fill="#181818" points="2233.7249,353.5455,2242.0582,374.3788,2250.3915,353.5455,2242.0582,361.8788" style="stroke:#181818;stroke-width:2.0833;"/><line style="stroke:#181818;stroke-width:2.0833;" x1="2242.0582" x2="2242.0582" y1="450.0957" y2="460.5124"/><line style="stroke:#181818;stroke-width:2.0833;" x1="2242.0582" x2="965.7428" y1="460.5124" y2="460.5124"/><line style="stroke:#181818;stroke-width:2.0833;" x1="965.7428" x2="965.7428" y1="460.5124" y2="491.7624"/><polygon fill="#181818" points="957.4095,470.9291,965.7428,491.7624,974.0761,470.9291,965.7428,479.2624" style="stroke:#181818;stroke-width:2.0833;"/><line style="stroke:#181818;stroke-width:2.0833;" x1="2242.0582" x2="2242.0582" y1="804.1523" y2="822.9212"/><line style="stroke:#181818;stroke-width:2.0833;" x1="2242.0582" x2="965.7428" y1="822.9212" y2="822.9212"/><line style="stroke:#181818;stroke-width:2.0833;" x1="965.7428" x2="965.7428" y1="822.9212" y2="854.1712"/><polygon fill="#181818" points="957.4095,833.3378,965.7428,854.1712,974.0761,833.3378,965.7428,841.6712" style="stroke:#181818;stroke-width:2.0833;"/><line style="stroke:#181818;stroke-width:2.0833;" x1="965.7428" x2="965.7428" y1="929.8881" y2="950.7214"/><line style="stroke:#181818;stroke-width:2.0833;" x1="965.7428" x2="2492.8305" y1="950.7214" y2="950.7214"/><line style="stroke:#181818;stroke-width:2.0833;" x1="2492.8305" x2="2492.8305" y1="634.146" y2="950.7214"/><line style="stroke:#181818;stroke-width:2.0833;" x1="2492.8305" x2="2423.8988" y1="634.146" y2="634.146"/><polygon fill="#181818" points="2444.7321,625.8127,2423.8988,634.146,2444.7321,642.4793,2436.3988,634.146" style="stroke:#181818;stroke-width:2.0833;"/><line style="stroke:#181818;stroke-width:2.0833;" x1="965.7428" x2="965.7428" y1="567.4793" y2="577.896"/><line style="stroke:#181818;stroke-width:2.0833;" x1="965.7428" x2="2242.0582" y1="577.896" y2="577.896"/><line style="stroke:#181818;stroke-width:2.0833;" x1="2242.0582" x2="2242.0582" y1="577.896" y2="609.146"/><polygon fill="#181818" points="2233.7249,588.3127,2242.0582,609.146,2250.3915,588.3127,2242.0582,596.646" style="stroke:#181818;stroke-width:2.0833;"/><line style="stroke:#181818;stroke-width:2.0833;" x1="2242.0582" x2="2242.0582" y1="1093.105" y2="1103.5216"/><line style="stroke:#181818;stroke-width:2.0833;" x1="2242.0582" x2="965.7428" y1="1103.5216" y2="1103.5216"/><line style="stroke:#181818;stroke-width:2.0833;" x1="965.7428" x2="965.7428" y1="1103.5216" y2="1134.7716"/><polygon fill="#181818" points="957.4095,1113.9383,965.7428,1134.7716,974.0761,1113.9383,965.7428,1122.2716" style="stroke:#181818;stroke-width:2.0833;"/><line style="stroke:#181818;stroke-width:2.0833;" x1="965.7428" x2="965.7428" y1="1210.4885" y2="1220.9052"/><line style="stroke:#181818;stroke-width:2.0833;" x1="965.7428" x2="2242.0582" y1="1220.9052" y2="1220.9052"/><line style="stroke:#181818;stroke-width:2.0833;" x1="2242.0582" x2="2242.0582" y1="1220.9052" y2="1252.1552"/><polygon fill="#181818" points="2233.7249,1231.3219,2242.0582,1252.1552,2250.3915,1231.3219,2242.0582,1239.6552" style="stroke:#181818;stroke-width:2.0833;"/><line style="stroke:#181818;stroke-width:2.0833;" x1="1439.4344" x2="1414.4344" y1="2162.835" y2="2162.835"/><line style="stroke:#181818;stroke-width:2.0833;" x1="1414.4344" x2="1414.4344" y1="2162.835" y2="2200.335"/><line style="stroke:#181818;stroke-width:2.0833;" x1="1414.4344" x2="3395.7294" y1="2200.335" y2="2200.335"/><line style="stroke:#181818;stroke-width:2.0833;" x1="3395.7294" x2="3395.7294" y1="2200.335" y2="2229.5017"/><polygon fill="#181818" points="3387.3961,2208.6684,3395.7294,2229.5017,3404.0627,2208.6684,3395.7294,2217.0017" style="stroke:#181818;stroke-width:2.0833;"/><line style="stroke:#181818;stroke-width:2.0833;" x1="1734.8243" x2="3922.3828" y1="2162.835" y2="2162.835"/><line style="stroke:#181818;stroke-width:2.0833;" x1="3922.3828" x2="3922.3828" y1="2162.835" y2="2229.5017"/><polygon fill="#181818" points="3914.0495,2208.6684,3922.3828,2229.5017,3930.7161,2208.6684,3922.3828,2217.0017" style="stroke:#181818;stroke-width:2.0833;"/><line style="stroke:#181818;stroke-width:2.0833;" x1="3395.7294" x2="3395.7294" y1="2305.2186" y2="2313.5519"/><line style="stroke:#181818;stroke-width:2.0833;" x1="3395.7294" x2="1524.6293" y1="2313.5519" y2="2313.5519"/><line style="stroke:#181818;stroke-width:2.0833;" x1="1524.6293" x2="1524.6293" y1="2313.5519" y2="2351.0519"/><line style="stroke:#181818;stroke-width:2.0833;" x1="1524.6293" x2="1562.1293" y1="2351.0519" y2="2351.0519"/><polygon fill="#181818" points="1541.296,2342.7186,1562.1293,2351.0519,1541.296,2359.3853,1549.6293,2351.0519" style="stroke:#181818;stroke-width:2.0833;"/><line style="stroke:#181818;stroke-width:2.0833;" x1="3922.3828" x2="3922.3828" y1="2305.2186" y2="2351.0519"/><line style="stroke:#181818;stroke-width:2.0833;" x1="3922.3828" x2="1612.1293" y1="2351.0519" y2="2351.0519"/><polygon fill="#181818" points="1632.9627,2342.7186,1612.1293,2351.0519,1632.9627,2359.3853,1624.6293,2351.0519" style="stroke:#181818;stroke-width:2.0833;"/><line style="stroke:#181818;stroke-width:2.0833;" x1="381.839" x2="381.839" y1="2064.9184" y2="2101.3767"/><line style="stroke:#181818;stroke-width:2.0833;" x1="381.839" x2="1587.1293" y1="2101.3767" y2="2101.3767"/><line style="stroke:#181818;stroke-width:2.0833;" x1="1587.1293" x2="1587.1293" y1="2101.3767" y2="2137.835"/><polygon fill="#181818" points="1578.796,2117.0017,1587.1293,2137.835,1595.4627,2117.0017,1587.1293,2125.335" style="stroke:#181818;stroke-width:2.0833;"/><line style="stroke:#181818;stroke-width:2.0833;" x1="1587.1293" x2="1587.1293" y1="2376.0519" y2="2391.1655"/><line style="stroke:#181818;stroke-width:2.0833;" x1="1587.1293" x2="381.839" y1="2391.1655" y2="2391.1655"/><line style="stroke:#181818;stroke-width:2.0833;" x1="381.839" x2="381.839" y1="2391.1655" y2="2417.7186"/><polygon fill="#181818" points="373.5057,2396.8853,381.839,2417.7186,390.1724,2396.8853,381.839,2405.2186" style="stroke:#181818;stroke-width:2.0833;"/><line style="stroke:#181818;stroke-width:2.0833;" x1="2619.8013" x2="2594.8013" y1="2088.5182" y2="2088.5182"/><line style="stroke:#181818;stroke-width:2.0833;" x1="2594.8013" x2="2594.8013" y1="2088.5182" y2="2126.0182"/><line style="stroke:#181818;stroke-width:2.0833;" x1="2594.8013" x2="4476.8899" y1="2126.0182" y2="2126.0182"/><line style="stroke:#181818;stroke-width:2.0833;" x1="4476.8899" x2="4476.8899" y1="2126.0182" y2="2155.1849"/><polygon fill="#181818" points="4468.5565,2134.3516,4476.8899,2155.1849,4485.2232,2134.3516,4476.8899,2142.6849" style="stroke:#181818;stroke-width:2.0833;"/><line style="stroke:#181818;stroke-width:2.0833;" x1="3044.0508" x2="5084.8563" y1="2088.5182" y2="2088.5182"/><line style="stroke:#181818;stroke-width:2.0833;" x1="5084.8563" x2="5084.8563" y1="2088.5182" y2="2155.1849"/><polygon fill="#181818" points="5076.523,2134.3516,5084.8563,2155.1849,5093.1896,2134.3516,5084.8563,2142.6849" style="stroke:#181818;stroke-width:2.0833;"/><line style="stroke:#181818;stroke-width:2.0833;" x1="4476.8899" x2="4476.8899" y1="2230.9018" y2="2239.2351"/><line style="stroke:#181818;stroke-width:2.0833;" x1="4476.8899" x2="2769.426" y1="2239.2351" y2="2239.2351"/><line style="stroke:#181818;stroke-width:2.0833;" x1="2769.426" x2="2769.426" y1="2239.2351" y2="2276.7351"/><line style="stroke:#181818;stroke-width:2.0833;" x1="2769.426" x2="2806.926" y1="2276.7351" y2="2276.7351"/><polygon fill="#181818" points="2786.0927,2268.4018,2806.926,2276.7351,2786.0927,2285.0685,2794.426,2276.7351" style="stroke:#181818;stroke-width:2.0833;"/><line style="stroke:#181818;stroke-width:2.0833;" x1="5084.8563" x2="5084.8563" y1="2230.9018" y2="2276.7351"/><line style="stroke:#181818;stroke-width:2.0833;" x1="5084.8563" x2="2856.926" y1="2276.7351" y2="2276.7351"/><polygon fill="#181818" points="2877.7594,2268.4018,2856.926,2276.7351,2877.7594,2285.0685,2869.426,2276.7351" style="stroke:#181818;stroke-width:2.0833;"/><line style="stroke:#181818;stroke-width:2.0833;" x1="1311.5576" x2="1311.5576" y1="1844.4287" y2="1852.762"/><line style="stroke:#181818;stroke-width:2.0833;" x1="1311.5576" x2="2831.926" y1="1852.762" y2="1852.762"/><line style="stroke:#181818;stroke-width:2.0833;" x1="2831.926" x2="2831.926" y1="1852.762" y2="2063.5182"/><polygon fill="#181818" points="2823.5927,2042.6849,2831.926,2063.5182,2840.2594,2042.6849,2831.926,2051.0182" style="stroke:#181818;stroke-width:2.0833;"/><line style="stroke:#181818;stroke-width:2.0833;" x1="381.839" x2="381.839" y1="2467.7186" y2="2480.2186"/><line style="stroke:#181818;stroke-width:2.0833;" x1="381.839" x2="3669.4728" y1="2480.2186" y2="2480.2186"/><line style="stroke:#181818;stroke-width:2.0833;" x1="3669.4728" x2="3669.4728" y1="2480.2186" y2="2509.3853"/><polygon fill="#181818" points="3661.1394,2488.5519,3669.4728,2509.3853,3677.8061,2488.5519,3669.4728,2496.8853" style="stroke:#181818;stroke-width:2.0833;"/><line style="stroke:#181818;stroke-width:2.0833;" x1="2831.926" x2="2831.926" y1="2301.7351" y2="2480.2186"/><line style="stroke:#181818;stroke-width:2.0833;" x1="2831.926" x2="4770.4564" y1="2480.2186" y2="2480.2186"/><line style="stroke:#181818;stroke-width:2.0833;" x1="4770.4564" x2="4770.4564" y1="2480.2186" y2="2509.3853"/><polygon fill="#181818" points="4762.1231,2488.5519,4770.4564,2509.3853,4778.7898,2488.5519,4770.4564,2496.8853" style="stroke:#181818;stroke-width:2.0833;"/><line style="stroke:#181818;stroke-width:2.0833;" x1="4201.4219" x2="4201.4219" y1="2521.8853" y2="2532.3019"/><line style="stroke:#181818;stroke-width:2.0833;" x1="4201.4219" x2="965.7428" y1="2532.3019" y2="2532.3019"/><line style="stroke:#181818;stroke-width:2.0833;" x1="965.7428" x2="965.7428" y1="2532.3019" y2="2563.5519"/><polygon fill="#181818" points="957.4095,2542.7186,965.7428,2563.5519,974.0761,2542.7186,965.7428,2551.0519" style="stroke:#181818;stroke-width:2.0833;"/><line style="stroke:#181818;stroke-width:2.0833;" x1="965.7428" x2="965.7428" y1="2639.2688" y2="2649.6855"/><line style="stroke:#181818;stroke-width:2.0833;" x1="965.7428" x2="2242.0582" y1="2649.6855" y2="2649.6855"/><line style="stroke:#181818;stroke-width:2.0833;" x1="2242.0582" x2="2242.0582" y1="2649.6855" y2="2680.9355"/><polygon fill="#181818" points="2233.7249,2660.1022,2242.0582,2680.9355,2250.3915,2660.1022,2242.0582,2668.4355" style="stroke:#181818;stroke-width:2.0833;"/><line style="stroke:#181818;stroke-width:2.0833;" x1="2242.0582" x2="2242.0582" y1="2756.6524" y2="2767.0691"/><line style="stroke:#181818;stroke-width:2.0833;" x1="2242.0582" x2="965.7428" y1="2767.0691" y2="2767.0691"/><line style="stroke:#181818;stroke-width:2.0833;" x1="965.7428" x2="965.7428" y1="2767.0691" y2="2798.3191"/><polygon fill="#181818" points="957.4095,2777.4857,965.7428,2798.3191,974.0761,2777.4857,965.7428,2785.8191" style="stroke:#181818;stroke-width:2.0833;"/><line style="stroke:#181818;stroke-width:2.0833;" x1="2242.0582" x2="2242.0582" y1="1436.2054" y2="1446.6221"/><line style="stroke:#181818;stroke-width:2.0833;" x1="2242.0582" x2="965.7428" y1="1446.6221" y2="1446.6221"/><line style="stroke:#181818;stroke-width:2.0833;" x1="965.7428" x2="965.7428" y1="1446.6221" y2="1477.8721"/><polygon fill="#181818" points="957.4095,1457.0388,965.7428,1477.8721,974.0761,1457.0388,965.7428,1465.3721" style="stroke:#181818;stroke-width:2.0833;"/><text fill="#000000" font-family="sans-serif" font-size="37.5" lengthAdjust="spacing" textLength="119.7743" x="651.1" y="152.2578">Doctor</text><text fill="#000000" font-family="sans-serif" font-size="37.5" lengthAdjust="spacing" textLength="127.4242" x="2176.5409" y="152.2578">System</text><text fill="#000000" font-family="sans-serif" font-size="37.5" lengthAdjust="spacing" textLength="106.2744" x="4207.6913" y="152.2578">Nurse</text><!--SRC=[VLKzSzim3DtrAx0b6NoNwsWFlQRrNJeapJLTEj8YRE5Caof1sLNg_lU27_fewZHB90fuU7Xue7bFjbLU7K2t1EzkRoiUJrGTw4YXXryLm9sgzpllEgi_EkCy6DerOMCwZD-Sr-ZpUJhwNLM1Wa6uTznIK0QUd8__5l3Kz4mkDEXLInpav0uraqOu4bEegYjOSr0RGznC33IfNQ9aDV293aPPvEhyoTN1-NDrVkuvu44U7ZlFUAugWV02DaOiymEu5Ys3b8U3sv0mL6rhg5Q1d5rL4z0oFqXXRetgSufnExB0jKTCmQ_1qGRqELHYjBoICZo7FJMnvdK1Fof3MWNaUVZx6o26wySlDwBiG8CRTs9GdK1BLAOBwBtpAuaQYKX2eU9nyHORYH_eeDM5qVVryqqrTatCdR1ILYPG8mk8srzkcT5W7KgLpdkf8cHf6zAeMY4QJsIOOIx3rldzhBlMet5AynWlegW4K1koqgw1HX2SxrSf5THEaPtBqzkwySxI2quWGV6U4qgo4K9ogGWWNKDYCBLJL7Xm7eTy1fbrchgKBaD9Air5FXAUBj0MonIN9LElPZd9cFdRPcvyaGUWw09m1Ok5R8PNqXTyMCBZm_ev7gMFit43q1QkFtCE8AkZDr0BtUYKaN3y6mY8sE9WskJvfZoM4IV_vyXnJFcrL8YCjJHSoyuS5HbPKRnKH_BB4Wxlo_IUDmqBLV6LZ8FiJgmbb5nmjJC30JGINZRWlv2nbGPrPp3pkzIDJ9ksrVHKP1uzz4hikoLyywZ28GvqL7okoAI7c2MjI79N6BEIpov9ytSNWopw81xdlAiZXk9fK3gtybgLYsWUVyZcYi5gepnjXwjYWzjexQ6MB_VTN9zfAovUADDTDTeQh0kOhsJQYT_JLH2tK1RMzCdGC-76NLN70ZAcT-s4lBx_kdg3WjYaHjcPQ9cKZp_3i7khsLqM9VhtfjgIbHPUIXaj3kuX_Pwjug-5Qwi_]--></g></svg>