<svg xmlns="http://www.w3.org/2000/svg" xmlns:xlink="http://www.w3.org/1999/xlink" contentStyleType="text/css" data-diagram-type="DESCRIPTION" height="1125px" preserveAspectRatio="none" style="width:1385px;height:1125px;background:#FFFFFF;" version="1.1" viewBox="0 0 1385 1125" width="1385.4167px" zoomAndPan="magnify"><defs/><g><!--cluster Hospital Portal - Physiotherapist / Nurse Use Cases--><g class="cluster" data-entity="Hospital Portal - Physiotherapist . Nurse Use Cases" data-source-line="19" data-uid="ent0005" id="cluster_Hospital Portal - Physiotherapist . Nurse Use Cases"><rect fill="none" height="1097.9167" rx="5.2083" ry="5.2083" style="stroke:#181818;stroke-width:2.0833;" width="995.8333" x="260.4167" y="14.5833"/><text fill="#000000" font-family="sans-serif" font-size="29.1667" font-weight="bold" lengthAdjust="spacing" textLength="738.7013" x="388.9827" y="49.929">Hospital Portal - Physiotherapist / Nurse Use Cases</text></g><!--entity UC1--><g class="entity" data-entity="UC1" data-source-line="20" data-uid="ent0006" id="entity_UC1"><ellipse cx="787.3679" cy="1044.7564" fill="#ADD8E6" rx="60.2845" ry="34.3397" style="stroke:#0000FF;stroke-width:1.0417;"/><text fill="#000000" font-family="sans-serif" font-size="29.1667" lengthAdjust="spacing" textLength="76.4164" x="749.1597" y="1057.3271">Login</text></g><!--entity UC2--><g class="entity" data-entity="UC2" data-source-line="21" data-uid="ent0007" id="entity_UC2"><ellipse cx="537.1345" cy="791.1769" fill="#ADD8E6" rx="243.3845" ry="53.6769" style="stroke:#0000FF;stroke-width:1.0417;"/><text fill="#000000" font-family="sans-serif" font-size="29.1667" lengthAdjust="spacing" textLength="430.6734" x="321.7978" y="803.7477">Perform pre-round preparation</text></g><!--entity UC3--><g class="entity" data-entity="UC3" data-source-line="22" data-uid="ent0008" id="entity_UC3"><ellipse cx="537.5702" cy="490.4307" fill="#ADD8E6" rx="182.3619" ry="41.4724" style="stroke:#0000FF;stroke-width:1.0417;"/><text fill="#000000" font-family="sans-serif" font-size="29.1667" lengthAdjust="spacing" textLength="290.8781" x="392.1312" y="503.0015">Perform bedside visit</text></g><!--entity UC4--><g class="entity" data-entity="UC4" data-source-line="23" data-uid="ent0009" id="entity_UC4"><ellipse cx="1039.5626" cy="791.8708" fill="#ADD8E6" rx="184.3542" ry="41.8708" style="stroke:#0000FF;stroke-width:1.0417;"/><text fill="#000000" font-family="sans-serif" font-size="29.1667" lengthAdjust="spacing" textLength="295.6906" x="891.7173" y="804.4416">Administer treatment</text></g><!--entity UC5--><g class="entity" data-entity="UC5" data-source-line="24" data-uid="ent0010" id="entity_UC5"><ellipse cx="614.7819" cy="161.9147" fill="#ADD8E6" rx="315.8236" ry="68.1647" style="stroke:#0000FF;stroke-width:1.0417;"/><text fill="#000000" font-family="sans-serif" font-size="29.1667" lengthAdjust="spacing" textLength="586.4227" x="321.5705" y="174.4855">Apply neuromuscular electrical stimulation</text></g><!--entity Medic--><g class="entity" data-entity="Medic" data-source-line="15" data-uid="ent0002" id="entity_Medic"><ellipse cx="118.2665" cy="426.0417" fill="#D3D3D3" rx="16.6667" ry="16.6667" style="stroke:#808080;stroke-width:1.0417;"/><path d="M118.2665,442.7083 L118.2665,498.9583 M91.1832,459.375 L145.3498,459.375 M118.2665,498.9583 L91.1832,530.2083 M118.2665,498.9583 L145.3498,530.2083" fill="none" style="stroke:#808080;stroke-width:1.0417;"/><text fill="#000000" font-family="sans-serif" font-size="29.1667" lengthAdjust="spacing" textLength="82.3663" x="77.0833" y="564.5124">Medic</text></g><!--entity Physiotherapist--><g class="entity" data-entity="Physiotherapist" data-source-line="16" data-uid="ent0003" id="entity_Physiotherapist"><ellipse cx="119.0309" cy="96.875" fill="#D3D3D3" rx="16.6667" ry="16.6667" style="stroke:#808080;stroke-width:1.0417;"/><path d="M119.0309,113.5417 L119.0309,169.7917 M91.9475,130.2083 L146.1142,130.2083 M119.0309,169.7917 L91.9475,201.0417 M119.0309,169.7917 L146.1142,201.0417" fill="none" style="stroke:#808080;stroke-width:1.0417;"/><text fill="#000000" font-family="sans-serif" font-size="29.1667" lengthAdjust="spacing" textLength="213.0617" x="12.5" y="235.3457">Physiotherapist</text></g><!--entity Nurse--><g class="entity" data-entity="Nurse" data-source-line="17" data-uid="ent0004" id="entity_Nurse"><ellipse cx="1330.9123" cy="426.0417" fill="#D3D3D3" rx="16.6667" ry="16.6667" style="stroke:#808080;stroke-width:1.0417;"/><path d="M1330.9123,442.7083 L1330.9123,498.9583 M1303.829,459.375 L1357.9957,459.375 M1330.9123,498.9583 L1303.829,530.2083 M1330.9123,498.9583 L1357.9957,530.2083" fill="none" style="stroke:#808080;stroke-width:1.0417;"/><text fill="#000000" font-family="sans-serif" font-size="29.1667" lengthAdjust="spacing" textLength="82.658" x="1289.5833" y="564.5124">Nurse</text></g><!--link Physiotherapist to Medic--><g class="link" data-entity-1="Physiotherapist" data-entity-2="Medic" data-source-line="27" data-uid="lnk11" id="link_Physiotherapist_Medic"><path d="M118.75,243.875 C118.75,293.875 118.75,320.4583 118.75,370.5" fill="none" id="Physiotherapist-to-Medic" style="stroke:#181818;stroke-width:2.0833;"/><polygon fill="none" points="118.75,408,131.25,370.5,106.25,370.5,118.75,408" style="stroke:#181818;stroke-width:2.0833;"/></g><!--link Physiotherapist to UC3--><g class="link" data-entity-1="Physiotherapist" data-entity-2="UC3" data-source-line="29" data-uid="lnk12" id="link_Physiotherapist_UC3"><path d="M222.2708,243.875 C307.0208,309.6667 413.3334,392.1694 478.3751,442.6485" fill="none" id="Physiotherapist-to-UC3" style="stroke:#181818;stroke-width:2.0833;"/><polygon fill="#181818" points="488.25,450.3125,478.547,432.2333,480.0209,443.9259,468.3283,445.3998,488.25,450.3125" style="stroke:#181818;stroke-width:2.0833;"/></g><!--link Nurse to UC4--><g class="link" data-entity-1="Nurse" data-entity-2="UC4" data-source-line="30" data-uid="lnk13" id="link_Nurse_UC4"><path d="M1289.4583,537.9167 C1278.7083,549.4167 1267.125,561.6875 1256.25,572.9167 C1195.2292,636.0208 1131.7628,699.0231 1088.0336,742.0648" fill="none" id="Nurse-to-UC4" style="stroke:#181818;stroke-width:2.0833;"/><polygon fill="#181818" points="1079.125,750.8333,1098.3336,743.6196,1086.5488,743.5262,1086.6422,731.7415,1079.125,750.8333" style="stroke:#181818;stroke-width:2.0833;"/></g><!--link UC3 to UC2--><g class="link" data-entity-1="UC3" data-entity-2="UC2" data-source-line="32" data-uid="lnk14" id="link_UC3_UC2"><path d="M537.5,532.75 C537.5,585.6042 537.5,666.2917 537.5,724.7083" fill="none" id="UC3-to-UC2" style="stroke:#181818;stroke-width:2.0833;"/><polygon fill="#181818" points="537.5,737.2083,545.8333,718.4583,537.5,726.7917,529.1667,718.4583,537.5,737.2083" style="stroke:#181818;stroke-width:2.0833;"/><text fill="#000000" font-family="sans-serif" font-size="27.0833" lengthAdjust="spacing" textLength="119.9522" x="539.5833" y="666.4521">&#171;include&#187;</text></g><!--link UC2 to UC1--><g class="link" data-entity-1="UC2" data-entity-2="UC1" data-source-line="33" data-uid="lnk15" id="link_UC2_UC1"><path d="M588.6875,844.7292 C640.125,895.9375 708.6642,964.1998 750.0809,1005.4498" fill="none" id="UC2-to-UC1" style="stroke:#181818;stroke-width:2.0833;"/><polygon fill="#181818" points="758.9375,1014.2708,751.5332,995.1349,751.557,1006.92,739.7719,1006.9438,758.9375,1014.2708" style="stroke:#181818;stroke-width:2.0833;"/><text fill="#000000" font-family="sans-serif" font-size="27.0833" lengthAdjust="spacing" textLength="119.9522" x="693.75" y="939.3688">&#171;include&#187;</text></g><!--link UC4 to UC1--><g class="link" data-entity-1="UC4" data-entity-2="UC1" data-source-line="34" data-uid="lnk16" id="link_UC4_UC1"><path d="M1000.1875,832.6458 C949.2292,882.9792 870.5398,960.6958 825.3106,1005.3625" fill="none" id="UC4-to-UC1" style="stroke:#181818;stroke-width:2.0833;"/><polygon fill="#181818" points="816.4167,1014.1458,835.6132,1006.9001,823.8283,1006.8264,823.902,995.0415,816.4167,1014.1458" style="stroke:#181818;stroke-width:2.0833;"/><text fill="#000000" font-family="sans-serif" font-size="27.0833" lengthAdjust="spacing" textLength="119.9522" x="922.9167" y="939.3688">&#171;include&#187;</text></g><!--link UC5 to UC3--><g class="link" data-entity-1="UC5" data-entity-2="UC3" data-source-line="35" data-uid="lnk17" id="link_UC5_UC3"><path d="M598.9792,229.3125 C583.4167,294.9792 562.8636,381.5873 549.8844,436.3165" fill="none" id="UC5-to-UC3" style="stroke:#181818;stroke-width:2.0833;"/><polygon fill="#181818" points="547,448.4792,559.435,432.1581,549.4037,438.3436,543.2182,428.3122,547,448.4792" style="stroke:#181818;stroke-width:2.0833;"/><text fill="#000000" font-family="sans-serif" font-size="27.0833" lengthAdjust="spacing" textLength="115.6188" x="581.25" y="337.2854">&#171;extend&#187;</text></g><!--SRC=[TL31JW8n4BttAoRSDmB2nP1Db8i7DLpuWDAEouHksqnR8r7-tNPtCIl2eMddlNdJDoySo7h9iWNj2URJgH3X5qe1bGm8NmBWIQf3movPlNR6CHXgzd5d4XREiKRkyGuwZOP85JDySqJ3ydWneeDEGaJd8JhOkHXTzaUCAfApGlGZNr6J6jwR_J6GYtjawId40NrB7528efEsCGYJPnSyHMbWuxXSrQKIxdeLRFDPv-N3fFD-ZcBouXgo4v01jklPcDWWlpjkmJDMtPBbLI8edWV1_9fWXpgGHlYWG75el1ytFkgMRFQ6395HnXRjkM_nfyzxSmIBYLsRWaf6Cg39opEfl6k8r6PiP6TPKhuCeAg-wo7RArpTcUiZwgk541aQYZaym6f5LfcaiQv5GNfczezPt6IMvuyw1ZyZMfs97m00]--></g></svg>