<?xml version="1.0" encoding="UTF-8" standalone="no"?><svg xmlns="http://www.w3.org/2000/svg" xmlns:xlink="http://www.w3.org/1999/xlink" contentStyleType="text/css" height="1093.75px" preserveAspectRatio="none" style="width:1429px;height:1093px;background:#FFFFFF;" version="1.1" viewBox="0 0 1429 1093" width="1429.1667px" zoomAndPan="magnify"><defs/><g><!--cluster Hospital Portal - Physiotherapist / Nurse Use Cases--><g id="cluster_Hospital Portal - Physiotherapist / Nurse Use Cases"><rect fill="none" height="1066.6667" rx="5.2083" ry="5.2083" style="stroke:#181818;stroke-width:2.0833333333333335;" width="1027.0833" x="268.75" y="14.5833"/><text fill="#000000" font-family="sans-serif" font-size="29.1667" font-weight="bold" lengthAdjust="spacing" textLength="839.5833" x="362.5" y="45.8232">Hospital Portal - Physiotherapist / Nurse Use Cases</text></g><g id="elem_UC1"><ellipse cx="735.8815" cy="1017.8094" fill="#ADD8E6" rx="78.5898" ry="30.3094" style="stroke:#0000FF;stroke-width:1.0416666666666667;"/><text fill="#000000" font-family="sans-serif" font-size="29.1667" lengthAdjust="spacing" textLength="77.0833" x="693.9825" y="1024.8566">Login</text></g><g id="elem_UC2"><ellipse cx="554.6687" cy="772.1837" fill="#ADD8E6" rx="252.5853" ry="55.5171" style="stroke:#0000FF;stroke-width:1.0416666666666667;"/><text fill="#000000" font-family="sans-serif" font-size="29.1667" lengthAdjust="spacing" textLength="437.5" x="335.9187" y="778.1143">Perform pre-round preparation</text></g><g id="elem_UC3"><ellipse cx="554.1658" cy="477.2915" fill="#ADD8E6" rx="189.5825" ry="42.9165" style="stroke:#0000FF;stroke-width:1.0416666666666667;"/><text fill="#000000" font-family="sans-serif" font-size="29.1667" lengthAdjust="spacing" textLength="300" x="404.1658" y="483.2221">Perform bedside visit</text></g><g id="elem_UC4"><ellipse cx="1070.7147" cy="772.2679" fill="#ADD8E6" rx="190.5064" ry="43.1013" style="stroke:#0000FF;stroke-width:1.0416666666666667;"/><text fill="#000000" font-family="sans-serif" font-size="29.1667" lengthAdjust="spacing" textLength="302.0833" x="919.6731" y="778.1985">Administer treatment</text></g><g id="elem_UC5"><ellipse cx="637.3275" cy="158.7155" fill="#ADD8E6" rx="331.0775" ry="71.2155" style="stroke:#0000FF;stroke-width:1.0416666666666667;"/><text fill="#000000" font-family="sans-serif" font-size="29.1667" lengthAdjust="spacing" textLength="602.0833" x="336.2859" y="164.6461">Apply neuromuscular electrical stimulation</text></g><!--entity Medic--><g id="elem_Medic"><ellipse cx="122.9167" cy="415.625" fill="#D3D3D3" rx="16.6667" ry="16.6667" style="stroke:#808080;stroke-width:1.0416666666666667;"/><path d="M122.9167,432.2917 L122.9167,488.5417 M95.8333,448.9583 L150,448.9583 M122.9167,488.5417 L95.8333,519.7917 M122.9167,488.5417 L150,519.7917 " fill="none" style="stroke:#808080;stroke-width:1.0416666666666667;"/><text fill="#000000" font-family="sans-serif" font-size="29.1667" lengthAdjust="spacing" textLength="85.4167" x="80.2083" y="549.9898">Medic</text></g><!--entity Physiotherapist--><g id="elem_Physiotherapist"><ellipse cx="122.9167" cy="96.875" fill="#D3D3D3" rx="16.6667" ry="16.6667" style="stroke:#808080;stroke-width:1.0416666666666667;"/><path d="M122.9167,113.5417 L122.9167,169.7917 M95.8333,130.2083 L150,130.2083 M122.9167,169.7917 L95.8333,201.0417 M122.9167,169.7917 L150,201.0417 " fill="none" style="stroke:#808080;stroke-width:1.0416666666666667;"/><text fill="#000000" font-family="sans-serif" font-size="29.1667" lengthAdjust="spacing" textLength="220.8333" x="12.5" y="231.2398">Physiotherapist</text></g><!--entity Nurse--><g id="elem_Nurse"><ellipse cx="1372.9167" cy="415.625" fill="#D3D3D3" rx="16.6667" ry="16.6667" style="stroke:#808080;stroke-width:1.0416666666666667;"/><path d="M1372.9167,432.2917 L1372.9167,488.5417 M1345.8333,448.9583 L1400,448.9583 M1372.9167,488.5417 L1345.8333,519.7917 M1372.9167,488.5417 L1400,519.7917 " fill="none" style="stroke:#808080;stroke-width:1.0416666666666667;"/><text fill="#000000" font-family="sans-serif" font-size="29.1667" lengthAdjust="spacing" textLength="85.4167" x="1330.2083" y="549.9898">Nurse</text></g><!--link Physiotherapist to Medic--><g id="link_Physiotherapist_Medic"><path d="M122.9167,238.1875 C122.9167,273.6667 122.9167,316.4792 122.9167,355.8958 " fill="none" id="Physiotherapist-to-Medic" style="stroke:#181818;stroke-width:2.0833333333333335;"/><polygon fill="none" points="137.5,355.9167,122.9167,397.5833,108.3333,355.9167,137.5,355.9167" style="stroke:#181818;stroke-width:2.0833333333333335;"/></g><!--link Physiotherapist to UC3--><g id="link_Physiotherapist_UC3"><path d="M228.9583,237.7708 C311.3125,297.8333 422.6875,379.0833 491.4167,429.2292 " fill="none" id="Physiotherapist-to-UC3" style="stroke:#181818;stroke-width:2.0833333333333335;"/><polygon fill="#181818" points="500.3958,435.7917,490.1819,417.9961,491.9882,429.6419,480.3424,431.4482,500.3958,435.7917" style="stroke:#181818;stroke-width:2.0833333333333335;"/></g><!--link Nurse to UC4--><g id="link_Nurse_UC4"><path d="M1329.8958,522.5833 C1318.8542,533.625 1306.9583,545.4167 1295.8333,556.25 C1236.3958,614.1458 1167,679.7083 1121.1667,722.75 " fill="none" id="Nurse-to-UC4" style="stroke:#181818;stroke-width:2.0833333333333335;"/><polygon fill="#181818" points="1113.4375,729.9792,1132.8026,723.1969,1121.0229,722.84,1121.3799,711.0602,1113.4375,729.9792" style="stroke:#181818;stroke-width:2.0833333333333335;"/></g><!--link UC3 to UC2--><g id="link_UC3_UC2"><path d="M554.1667,520.1875 C554.1667,568.3125 554.1667,648.6667 554.1667,705.1667 " fill="none" id="UC3-to-UC2" style="stroke:#181818;stroke-width:2.0833333333333335;"/><polygon fill="#181818" points="554.1667,716.1458,562.5,697.3958,554.1667,705.7292,545.8333,697.3958,554.1667,716.1458" style="stroke:#181818;stroke-width:2.0833333333333335;"/><text fill="#000000" font-family="sans-serif" font-size="27.0833" lengthAdjust="spacing" textLength="127.0833" x="556.25" y="645.9727">«include»</text></g><!--link UC2 to UC1--><g id="link_UC2_UC1"><path d="M593.9375,827 C628.625,873.2292 678,939.0625 708.3125,979.4792 " fill="none" id="UC2-to-UC1" style="stroke:#181818;stroke-width:2.0833333333333335;"/><polygon fill="#181818" points="714.8542,988.1875,710.2708,968.1875,708.6042,979.8542,696.9375,978.1875,714.8542,988.1875" style="stroke:#181818;stroke-width:2.0833333333333335;"/><text fill="#000000" font-family="sans-serif" font-size="27.0833" lengthAdjust="spacing" textLength="127.0833" x="666.6667" y="916.806">«include»</text></g><!--link UC4 to UC1--><g id="link_UC4_UC1"><path d="M1016.1875,813.3333 C950.0208,861 839.8958,940.3542 779.0833,984.1667 " fill="none" id="UC4-to-UC1" style="stroke:#181818;stroke-width:2.0833333333333335;"/><polygon fill="#181818" points="770.4792,990.3542,790.5693,986.1836,778.9394,984.2771,780.846,972.6472,770.4792,990.3542" style="stroke:#181818;stroke-width:2.0833333333333335;"/><text fill="#000000" font-family="sans-serif" font-size="27.0833" lengthAdjust="spacing" textLength="127.0833" x="904.1667" y="916.806">«include»</text></g><!--link UC5 to UC3--><g id="link_UC5_UC3"><path d="M619.2083,229.4583 C603.6667,288.125 581.7083,371 567.7083,423.875 " fill="none" id="UC5-to-UC3" style="stroke:#181818;stroke-width:2.0833333333333335;"/><polygon fill="#181818" points="565.0208,434.0417,577.8539,418.0317,567.6733,423.9684,561.7366,413.7878,565.0208,434.0417" style="stroke:#181818;stroke-width:2.0833333333333335;"/><text fill="#000000" font-family="sans-serif" font-size="27.0833" lengthAdjust="spacing" textLength="125" x="600" y="327.2227">«extend»</text></g><!--SRC=[TL31JW8n4BttAoRSDmB2nP1Db8i7DLpuWDAEouHksqnR8r7-tNPtCIl2eMddlNdJDoySo7h9iWNj2URJgH3X5qe1bGm8NmBWIQf3movPlNR6CHXgzd5d4XREiKRkyGuwZOP85JDySqJ3ydWneeDEGaJd8JhOkHXTzaUCAfApGlGZNr6J6jwR_J6GYtjawId40NrB7528efEsCGYJPnSyHMbWuxXSrQKIxdeLRFDPv-N3fFD-ZcBouXgo4v01jklPcDWWlpjkmJDMtPBbLI8edWV1_9fWXpgGHlYWG75el1ytFkgMRFQ6395HnXRjkM_nfyzxSmIBYLsRWaf6Cg39opEfl6k8r6PiP6TPKhuCeAg-wo7RArpTcUiZwgk541aQYZaym6f5LfcaiQv5GNfczezPt6IMvuyw1ZyZMfs97m00]--></g></svg>